<?xml version="1.0" encoding="utf-8"?>
<!-- Generator: Adobe Illustrator 21.1.0, SVG Export Plug-In . SVG Version: 6.00 Build 0)  -->
<svg version="1.1" xmlns="http://www.w3.org/2000/svg" xmlns:xlink="http://www.w3.org/1999/xlink" x="0px" y="0px"
	 viewBox="0 0 1920 1080" style="enable-background:new 0 0 1920 1080;" xml:space="preserve">
<style type="text/css">
	.st0{fill:#FFFFFF;}
</style>
<g id="_x30_">
	<g>
		<path class="st0" d="M739.2,243.9v-31.4c0-1.6,1.3-2.9,2.9-2.9c1.6,0,3,1.3,3,2.9v28.4h14.4c1.5,0,2.9,1.3,2.9,3
			c0,1.6-1.4,2.9-2.9,2.9h-17.2c-0.1,0-0.1,0-0.1,0c-0.1,0-0.1,0-0.1,0C740.5,246.8,739.2,245.5,739.2,243.9z"/>
		<path class="st0" d="M765.9,221.7c2.4-0.7,3.7-2.4,3.6-4.8c-1.5-0.4-3-1.6-3-3.6v-0.4c0-2,1.4-3.6,3.6-3.6c2.3,0,3.8,1.8,3.8,4.7
			v0.5c0,3.6-1,6.1-2.6,7.8c-1.4,1.4-3.5,2.3-5,2.3c-1.1,0-1.6-0.6-1.6-1.5C764.7,222.4,765.2,221.9,765.9,221.7z"/>
		<path class="st0" d="M774.4,233.5c0.1-7.2,5.7-13.3,13-13.3c6.9,0,12.4,5.2,12.8,12.3c0,0.1,0,0.2,0,0.3s0,0.4-0.1,0.5
			c-0.2,1.3-1.3,2.1-2.8,2.1h-16.9c0.3,1.2,0.9,2.6,1.8,3.5c1.1,1.3,3.2,2.2,5.1,2.4c1.9,0.2,4.2-0.3,5.5-1.3c1.1-1.2,3.3-1,4-0.2
			c0.7,0.7,1.2,2.3,0,3.5c-2.6,2.4-5.7,3.5-9.5,3.5C780.1,246.8,774.5,240.8,774.4,233.5z M780.2,230.9h15.1
			c-0.5-2.1-3.2-5.3-7.9-5.6C782.9,225.5,780.7,228.7,780.2,230.9z"/>
		<path class="st0" d="M807.4,239.2c1-1.3,2.8-1.4,4-0.4c1.4,1.2,3.8,2.4,5.9,2.3c1.4,0,2.8-0.5,3.6-1c0.7-0.6,1-1.2,1-1.6
			c0-0.3-0.1-0.4-0.2-0.5c-0.1-0.2-0.3-0.4-0.7-0.6c-0.7-0.5-2.3-1.1-4.3-1.5h-0.1c-1.6-0.3-3.2-0.7-4.6-1.4
			c-1.4-0.7-2.7-1.6-3.7-3.1c-0.6-1-0.9-2.1-0.9-3.4c0-2.4,1.4-4.5,3.1-5.9c1.9-1.3,4.1-2,6.5-2c3.7,0,6.3,1.8,8,2.9
			c1.3,0.9,1.6,2.6,0.9,3.9c-0.9,1.3-2.6,1.6-3.9,0.7c-1.7-1.1-3.2-2-4.9-2c-1.3,0-2.5,0.4-3.2,1c-0.7,0.5-0.9,1-0.9,1.2
			c0,0.2,0,0.3,0.1,0.4c0.1,0.1,0.2,0.3,0.6,0.5c0.7,0.5,2.1,1,3.9,1.3l0.1,0.1h0.1c1.8,0.3,3.4,0.8,4.9,1.5
			c1.4,0.6,2.9,1.6,3.8,3.1c0.6,1.1,1,2.3,1,3.5c0,2.6-1.4,4.8-3.4,6.2c-1.9,1.3-4.3,2.1-6.9,2.1c-4.1-0.1-7.3-2-9.5-3.7
			C806.6,242.2,806.5,240.4,807.4,239.2z"/>
		<path class="st0" d="M834.9,254v-20.3c0,0,0,0,0-0.1v-10.5c0-1.5,1.3-2.8,2.8-2.8c1.5,0,2.7,1,2.9,2.2c2-1.3,4.5-2.2,7.2-2.2
			c7.1,0,12.9,6.1,12.9,13.4s-5.8,13.2-12.9,13.2c-2.7,0-5.2-0.8-7.1-2.2v9.4c0,1.5-1.3,2.9-3,2.9
			C836.2,256.8,834.9,255.4,834.9,254z M840.7,233.6c0,2.1,0.7,4.1,2.1,5.3c1.3,1.5,3.1,2.2,5.1,2.2c1.8,0,3.6-0.7,5-2.2
			c1.2-1.2,2.1-3.2,2.1-5.3s-0.9-4-2.1-5.4c-1.4-1.4-3.2-2.2-5-2.2c-2,0-3.7,0.7-5.1,2.2C841.4,229.6,840.7,231.5,840.7,233.6z"/>
		<path class="st0" d="M886.4,223.1c0,1.5-1.2,2.8-2.8,2.8c-1.2,0-2.3,0.3-3.2,1c-1,0.6-1.8,1.5-2.4,2.6c-1.3,1.7-1.9,3.7-2.2,4.5
			V244c0,1.5-1.3,2.8-2.9,2.8c-1.5,0-2.8-1.3-2.8-2.8v-21c0-1.5,1.3-2.8,2.8-2.8c1.6,0,2.9,1.2,2.9,2.8v0.4c0.3-0.4,0.7-0.8,1.1-1.1
			c1.8-1.2,4-2.1,6.7-2.1C885.1,220.3,886.4,221.5,886.4,223.1z"/>
		<path class="st0" d="M899.1,213.6c0,1.6-1.2,2.9-2.9,2.9c-1.6,0-2.9-1.3-2.9-2.9v-1.1c0-1.6,1.3-2.9,2.9-2.9
			c1.6,0,2.9,1.3,2.9,2.9V213.6z M899.1,223.2V244c0,1.6-1.2,2.9-2.9,2.9c-1.6,0-2.9-1.3-2.9-2.9v-20.7c0-1.7,1.3-2.9,2.9-2.9
			C897.9,220.3,899.1,221.5,899.1,223.2z"/>
		<path class="st0" d="M920.3,223.2c0,1.6-1.4,2.9-3,2.9h-1.3v14.8c1.6,0,2.9,1.3,2.9,3s-1.3,2.9-2.9,2.9c-3.2,0-5.9-2.7-5.9-5.9
			v-14.8h-1.5c-1.6,0-2.9-1.3-2.9-2.9c0-1.6,1.3-2.9,2.9-2.9h1.5v-7.7c0-1.6,1.3-2.9,3-2.9s2.9,1.3,2.9,2.9v7.7h1.3
			C918.9,220.2,920.3,221.5,920.3,223.2z"/>
		<path class="st0" d="M969.6,244c0,1.5-1.3,2.9-2.9,2.9c-1.4,0-2.6-1-2.8-2.3c-2,1.4-4.6,2.3-7.2,2.3c-7.2,0-12.9-6.1-12.9-13.2
			c0-7.3,5.7-13.4,12.9-13.4c2.6,0,5.2,0.9,7.1,2.2v-10c0-1.5,1.3-2.9,2.9-2.9c1.6,0,2.9,1.3,2.9,2.9v21.1c0,0,0,0,0,0.1V244z
			 M956.7,226c-1.9,0-3.7,0.8-5,2.2c-1.3,1.3-2.1,3.2-2.1,5.4c0,2,0.8,3.9,2.1,5.3c1.3,1.4,3.1,2.2,5,2.2c2,0,3.7-0.8,5-2.2
			c1.3-1.3,2.1-3.2,2.1-5.3c0-2.1-0.8-4-2.1-5.4C960.4,226.8,958.7,226,956.7,226z"/>
		<path class="st0" d="M980,221.7c2.4-0.7,3.7-2.4,3.6-4.8c-1.5-0.4-3-1.6-3-3.6v-0.4c0-2,1.4-3.6,3.6-3.6c2.3,0,3.8,1.8,3.8,4.7
			v0.5c0,3.6-1,6.1-2.6,7.8c-1.4,1.4-3.5,2.3-5,2.3c-1.1,0-1.6-0.6-1.6-1.5C978.8,222.4,979.3,221.9,980,221.7z"/>
		<path class="st0" d="M991,233.5c0.1-7.2,5.7-13.3,13-13.3c6.9,0,12.4,5.2,12.8,12.3c0,0.1,0,0.2,0,0.3s0,0.4-0.1,0.5
			c-0.2,1.3-1.3,2.1-2.8,2.1h-16.9c0.3,1.2,0.9,2.6,1.8,3.5c1.1,1.3,3.2,2.2,5.1,2.4c1.9,0.2,4.2-0.3,5.5-1.3c1.1-1.2,3.3-1,4-0.2
			c0.7,0.7,1.2,2.3,0,3.5c-2.6,2.4-5.7,3.5-9.5,3.5C996.7,246.8,991.1,240.8,991,233.5z M996.8,230.9h15.1c-0.5-2.1-3.2-5.3-7.9-5.6
			C999.5,225.5,997.2,228.7,996.8,230.9z M1005.2,215.4c0-0.4,0.2-0.9,0.4-1.2l3-4.7c0.6-1,1.4-1.5,2.6-1.5c1.7,0,3.8,1.1,3.8,2.1
			c0,0.6-0.4,1.1-0.9,1.6l-3.6,3.4c-1.3,1.2-2.3,1.4-3.8,1.4C1005.9,216.5,1005.2,216.1,1005.2,215.4z"/>
		<path class="st0" d="M1043.6,254v-9.4c-2,1.4-4.5,2.2-7.1,2.2c-7.2,0-12.9-6-12.9-13.3c0-7.3,5.7-13.3,12.9-13.3
			c2.7,0,5.2,0.9,7.2,2.2c0.2-1.2,1.4-2.2,2.8-2.2c1.6,0,2.9,1.3,2.9,2.9v10.4c0,0.1,0,0.1,0,0.1V254c0,1.5-1.3,2.8-2.9,2.8
			C1044.8,256.8,1043.6,255.4,1043.6,254z M1036.4,226c-1.9,0-3.6,0.9-5,2.3c-1.3,1.3-2.2,3.2-2.2,5.3c0,2.2,0.9,4.1,2.2,5.4
			c1.4,1.5,3.1,2.2,5,2.2c1.9,0,3.7-0.7,4.9-2.2c1.4-1.3,2.2-3.2,2.2-5.4c0-2-0.8-4-2.2-5.3C1040.1,226.8,1038.3,226,1036.4,226z"/>
		<path class="st0" d="M1070.9,246.8c-6.1,0-11.1-5-11.1-11.1v-12.7c0-1.5,1.3-2.8,2.8-2.8c1.6,0,2.8,1.3,2.8,2.8v12.7
			c0,3,2.4,5.4,5.4,5.4c3.1,0,5.5-2.4,5.6-5.4v-12.7c0-1.5,1.2-2.8,2.8-2.8c1.5,0,2.9,1.3,2.9,2.8v12.7
			C1082.1,241.8,1077,246.8,1070.9,246.8z"/>
		<path class="st0" d="M1098.8,213.6c0,1.6-1.2,2.9-2.9,2.9c-1.6,0-2.9-1.3-2.9-2.9v-1.1c0-1.6,1.3-2.9,2.9-2.9
			c1.6,0,2.9,1.3,2.9,2.9V213.6z M1098.8,223.2V244c0,1.6-1.2,2.9-2.9,2.9c-1.6,0-2.9-1.3-2.9-2.9v-20.7c0-1.7,1.3-2.9,2.9-2.9
			C1097.5,220.3,1098.8,221.5,1098.8,223.2z"/>
		<path class="st0" d="M1107.9,254v-20.3c0,0,0,0,0-0.1v-10.5c0-1.5,1.3-2.8,2.8-2.8c1.5,0,2.7,1,2.9,2.2c2-1.3,4.5-2.2,7.2-2.2
			c7.1,0,12.9,6.1,12.9,13.4s-5.8,13.2-12.9,13.2c-2.7,0-5.2-0.8-7.1-2.2v9.4c0,1.5-1.3,2.9-3,2.9
			C1109.2,256.8,1107.9,255.4,1107.9,254z M1113.8,233.6c0,2.1,0.7,4.1,2.1,5.3c1.3,1.5,3.1,2.2,5.1,2.2c1.8,0,3.6-0.7,5-2.2
			c1.2-1.2,2.1-3.2,2.1-5.3s-0.9-4-2.1-5.4c-1.4-1.4-3.2-2.2-5-2.2c-2,0-3.7,0.7-5.1,2.2C1114.5,229.6,1113.8,231.5,1113.8,233.6z"
			/>
		<path class="st0" d="M1140.6,233.5c0.1-7.2,5.7-13.3,13-13.3c6.9,0,12.4,5.2,12.8,12.3c0,0.1,0,0.2,0,0.3s0,0.4-0.1,0.5
			c-0.2,1.3-1.3,2.1-2.8,2.1h-16.9c0.3,1.2,0.9,2.6,1.8,3.5c1.1,1.3,3.2,2.2,5.1,2.4c1.9,0.2,4.2-0.3,5.5-1.3c1.1-1.2,3.3-1,4-0.2
			c0.7,0.7,1.2,2.3,0,3.5c-2.6,2.4-5.7,3.5-9.5,3.5C1146.3,246.8,1140.7,240.8,1140.6,233.5z M1146.4,230.9h15.1
			c-0.5-2.1-3.2-5.3-7.9-5.6C1149.1,225.5,1146.9,228.7,1146.4,230.9z"/>
		<path class="st0" d="M1189,233.5c0.1-7.2,5.7-13.3,13-13.3c6.9,0,12.4,5.2,12.8,12.3c0,0.1,0,0.2,0,0.3s0,0.4-0.1,0.5
			c-0.2,1.3-1.3,2.1-2.8,2.1H1195c0.3,1.2,0.9,2.6,1.8,3.5c1.1,1.3,3.2,2.2,5.1,2.4c1.9,0.2,4.2-0.3,5.5-1.3c1.1-1.2,3.3-1,4-0.2
			c0.7,0.7,1.2,2.3,0,3.5c-2.6,2.4-5.7,3.5-9.5,3.5C1194.7,246.8,1189,240.8,1189,233.5z M1194.8,230.9h15.1
			c-0.5-2.1-3.2-5.3-7.9-5.6C1197.4,225.5,1195.2,228.7,1194.8,230.9z"/>
		<path class="st0" d="M1245.4,231.3V244c0,1.5-1.2,2.8-2.8,2.8c-1.5,0-2.8-1.3-2.8-2.8v-12.7c0-3-2.5-5.4-5.5-5.4
			c-3,0-5.3,2.4-5.3,5.4V244c0,0.2,0,0.3-0.1,0.5c-0.3,1.3-1.4,2.3-2.8,2.3c-1.6,0-2.8-1.3-2.8-2.8v-12.7v-8.2
			c0-1.5,1.2-2.8,2.8-2.8c1.1,0,2.1,0.6,2.6,1.6c1.6-1,3.6-1.6,5.6-1.6C1240.5,220.2,1245.4,225.3,1245.4,231.3z"/>
		<path class="st0" d="M824.1,310.7v-9.4c-2,1.4-4.5,2.2-7.1,2.2c-7.2,0-12.9-6-12.9-13.3c0-7.3,5.7-13.3,12.9-13.3
			c2.7,0,5.2,0.9,7.2,2.2c0.2-1.2,1.4-2.2,2.8-2.2c1.6,0,2.9,1.3,2.9,2.9v10.4c0,0.1,0,0.1,0,0.1v20.4c0,1.5-1.3,2.8-2.9,2.8
			C825.4,313.5,824.1,312.2,824.1,310.7z M817,282.7c-1.9,0-3.6,0.9-5,2.3c-1.3,1.3-2.2,3.2-2.2,5.3c0,2.2,0.9,4.1,2.2,5.4
			c1.4,1.5,3.1,2.2,5,2.2c1.9,0,3.7-0.7,4.9-2.2c1.4-1.3,2.2-3.2,2.2-5.4c0-2-0.8-4-2.2-5.3C820.7,283.6,818.9,282.7,817,282.7z"/>
		<path class="st0" d="M851.4,303.6c-6.1,0-11.1-5-11.1-11.1v-12.7c0-1.5,1.3-2.8,2.8-2.8c1.6,0,2.8,1.3,2.8,2.8v12.7
			c0,3,2.4,5.4,5.4,5.4c3.1,0,5.5-2.4,5.6-5.4v-12.7c0-1.5,1.2-2.8,2.8-2.8c1.5,0,2.9,1.3,2.9,2.8v12.7
			C862.6,298.6,857.5,303.6,851.4,303.6z"/>
		<path class="st0" d="M871.6,290.3c0.1-7.2,5.7-13.3,13-13.3c6.9,0,12.4,5.2,12.8,12.3c0,0.1,0,0.2,0,0.3c0,0.1,0,0.4-0.1,0.5
			c-0.2,1.3-1.3,2.1-2.8,2.1h-16.9c0.3,1.2,0.9,2.6,1.8,3.5c1.1,1.3,3.2,2.2,5.1,2.4c1.9,0.2,4.2-0.3,5.5-1.3c1.1-1.2,3.3-1,4-0.2
			c0.7,0.7,1.2,2.3,0,3.5c-2.6,2.4-5.7,3.5-9.5,3.5C877.3,303.5,871.7,297.5,871.6,290.3z M877.4,287.7h15.1
			c-0.5-2.1-3.2-5.3-7.9-5.6C880.1,282.2,877.9,285.5,877.4,287.7z"/>
		<path class="st0" d="M909.2,266.3c1.6,0,3,1.3,3,2.9v31.4c0,1.6-1.3,2.9-3,2.9c-1.6,0-2.9-1.3-2.9-2.9v-31.4
			C906.3,267.7,907.6,266.3,909.2,266.3z"/>
		<path class="st0" d="M937.4,310.7v-9.4c-2,1.4-4.5,2.2-7.1,2.2c-7.2,0-12.9-6-12.9-13.3c0-7.3,5.7-13.3,12.9-13.3
			c2.7,0,5.2,0.9,7.2,2.2c0.2-1.2,1.4-2.2,2.8-2.2c1.6,0,2.9,1.3,2.9,2.9v10.4c0,0.1,0,0.1,0,0.1v20.4c0,1.5-1.3,2.8-2.9,2.8
			C938.7,313.5,937.4,312.2,937.4,310.7z M930.3,282.7c-1.9,0-3.6,0.9-5,2.3c-1.3,1.3-2.2,3.2-2.2,5.3c0,2.2,0.9,4.1,2.2,5.4
			c1.4,1.5,3.1,2.2,5,2.2c1.9,0,3.7-0.7,4.9-2.2c1.4-1.3,2.2-3.2,2.2-5.4c0-2-0.8-4-2.2-5.3C934,283.6,932.2,282.7,930.3,282.7z"/>
		<path class="st0" d="M964.8,303.6c-6.1,0-11.1-5-11.1-11.1v-12.7c0-1.5,1.3-2.8,2.8-2.8c1.6,0,2.8,1.3,2.8,2.8v12.7
			c0,3,2.4,5.4,5.4,5.4c3.1,0,5.5-2.4,5.6-5.4v-12.7c0-1.5,1.2-2.8,2.8-2.8c1.5,0,2.9,1.3,2.9,2.8v12.7
			C976,298.6,970.9,303.6,964.8,303.6z"/>
		<path class="st0" d="M985,290.3c0.1-7.2,5.7-13.3,13-13.3c6.9,0,12.4,5.2,12.8,12.3c0,0.1,0,0.2,0,0.3c0,0.1,0,0.4-0.1,0.5
			c-0.2,1.3-1.3,2.1-2.8,2.1h-16.9c0.3,1.2,0.9,2.6,1.8,3.5c1.1,1.3,3.2,2.2,5.1,2.4c1.9,0.2,4.2-0.3,5.5-1.3c1.1-1.2,3.3-1,4-0.2
			c0.7,0.7,1.2,2.3,0,3.5c-2.6,2.4-5.7,3.5-9.5,3.5C990.7,303.5,985,297.5,985,290.3z M990.8,287.7h15.1c-0.5-2.1-3.2-5.3-7.9-5.6
			C993.4,282.2,991.2,285.5,990.8,287.7z"/>
		<path class="st0" d="M1018,296c1-1.3,2.8-1.4,4-0.4c1.4,1.2,3.8,2.4,5.9,2.3c1.4,0,2.8-0.5,3.6-1c0.7-0.6,1-1.2,1-1.6
			c0-0.3-0.1-0.4-0.2-0.5c-0.1-0.2-0.3-0.4-0.7-0.6c-0.7-0.5-2.3-1.1-4.3-1.5h-0.1c-1.6-0.3-3.2-0.7-4.6-1.4
			c-1.4-0.7-2.7-1.6-3.7-3.1c-0.6-1-0.9-2.1-0.9-3.4c0-2.4,1.4-4.5,3.1-5.9c1.9-1.3,4.1-2,6.5-2c3.7,0,6.3,1.8,8,2.9
			c1.3,0.9,1.6,2.6,0.9,3.9c-0.9,1.3-2.6,1.6-3.9,0.7c-1.7-1.1-3.2-2-4.9-2c-1.3,0-2.5,0.4-3.2,1c-0.7,0.5-0.9,1-0.9,1.2
			c0,0.2,0,0.3,0.1,0.4c0.1,0.1,0.2,0.3,0.6,0.5c0.7,0.5,2.1,1,3.9,1.3l0.1,0.1h0.1c1.8,0.3,3.4,0.8,4.9,1.5
			c1.4,0.6,2.9,1.6,3.8,3.1c0.6,1.1,1,2.3,1,3.5c0,2.6-1.4,4.8-3.4,6.2c-1.9,1.3-4.3,2.1-6.9,2.1c-4.1-0.1-7.3-2-9.5-3.7
			C1017.2,298.9,1017,297.1,1018,296z"/>
		<path class="st0" d="M1059.5,290.3c0-7.4,6.2-13.3,13.5-13.4c3.2,0,6.2,1.2,8.5,2.9c1.2,1,1.4,2.8,0.6,3.9c-1.1,1.3-2.8,1.5-4,0.5
			c-1.4-1-3.1-1.7-5.1-1.7c-4.3,0-7.9,3.6-7.9,7.7c0,4.1,3.6,7.6,7.9,7.6c1.9,0,3.7-0.7,5.1-1.7c1.2-0.9,2.9-0.7,4,0.6
			c0.9,1.2,0.6,2.9-0.6,3.9c-2.3,1.6-5.3,2.8-8.5,2.8C1065.7,303.6,1059.5,297.6,1059.5,290.3z"/>
		<path class="st0" d="M1095,266.3c1.6,0,3,1.3,3,2.9v31.4c0,1.6-1.3,2.9-3,2.9c-1.6,0-2.9-1.3-2.9-2.9v-31.4
			C1092.1,267.7,1093.5,266.3,1095,266.3z"/>
		<path class="st0" d="M1110.8,270.3c0,1.6-1.2,2.9-2.9,2.9c-1.6,0-2.9-1.3-2.9-2.9v-1.1c0-1.6,1.3-2.9,2.9-2.9
			c1.6,0,2.9,1.3,2.9,2.9V270.3z M1110.8,280v20.7c0,1.6-1.2,2.9-2.9,2.9c-1.6,0-2.9-1.3-2.9-2.9V280c0-1.7,1.3-2.9,2.9-2.9
			C1109.6,277,1110.8,278.3,1110.8,280z"/>
		<path class="st0" d="M1118.1,290.3c0-7.4,6.2-13.3,13.5-13.4c3.2,0,6.2,1.2,8.5,2.9c1.2,1,1.4,2.8,0.6,3.9c-1.1,1.3-2.8,1.5-4,0.5
			c-1.4-1-3.1-1.7-5.1-1.7c-4.3,0-7.9,3.6-7.9,7.7c0,4.1,3.6,7.6,7.9,7.6c1.9,0,3.7-0.7,5.1-1.7c1.2-0.9,2.9-0.7,4,0.6
			c0.9,1.2,0.6,2.9-0.6,3.9c-2.3,1.6-5.3,2.8-8.5,2.8C1124.2,303.6,1118.1,297.6,1118.1,290.3z"/>
		<path class="st0" d="M1149,296c1-1.3,2.8-1.4,4-0.4c1.4,1.2,3.8,2.4,5.9,2.3c1.4,0,2.8-0.5,3.6-1c0.7-0.6,1-1.2,1-1.6
			c0-0.3-0.1-0.4-0.2-0.5c-0.1-0.2-0.3-0.4-0.7-0.6c-0.7-0.5-2.3-1.1-4.3-1.5h-0.1c-1.6-0.3-3.2-0.7-4.6-1.4
			c-1.4-0.7-2.7-1.6-3.7-3.1c-0.6-1-0.9-2.1-0.9-3.4c0-2.4,1.4-4.5,3.1-5.9c1.9-1.3,4.1-2,6.5-2c3.7,0,6.3,1.8,8,2.9
			c1.3,0.9,1.6,2.6,0.9,3.9c-0.9,1.3-2.6,1.6-3.9,0.7c-1.7-1.1-3.2-2-4.9-2c-1.3,0-2.5,0.4-3.2,1c-0.7,0.5-0.9,1-0.9,1.2
			c0,0.2,0,0.3,0.1,0.4c0.1,0.1,0.2,0.3,0.6,0.5c0.7,0.5,2.1,1,3.9,1.3l0.1,0.1h0.1c1.8,0.3,3.4,0.8,4.9,1.5
			c1.4,0.6,2.9,1.6,3.8,3.1c0.6,1.1,1,2.3,1,3.5c0,2.6-1.4,4.8-3.4,6.2c-1.9,1.3-4.3,2.1-6.9,2.1c-4.1-0.1-7.3-2-9.5-3.7
			C1148.2,298.9,1148.1,297.1,1149,296z"/>
		<path class="st0" d="M1179.8,296c2.2,0,4,1.8,4,4c0,2.2-1.8,3.9-4,3.9c-2.2,0-3.9-1.8-3.9-3.9C1175.9,297.8,1177.7,296,1179.8,296
			z"/>
	</g>
</g>
<g id="ico0">
	<g>
		<path class="st0" d="M934.7,190.9c-0.2-3.7-0.4-7.4-0.5-11.3c-5-0.6-7-4.5-7.3-9c-0.4-5.3,2.2-9.8,6.8-12.3
			c3.6-1.9,7.7-3,11.9-4.6c-5.6-7.7-6.4-16.8-2.6-26.1c2.4-6.1,7.2-10.4,13.3-12.6c13-4.7,28.3-0.1,33.8,15.9
			c7.2-19.1,26.4-21,37.9-13.9c6.5,4,10.2,9.8,11.6,17.5c1.4,7.9-1.6,14.1-5.4,20.7c3.4,0.8,6.5,1.5,9.7,2.4
			c5.3,1.5,8.9,4.7,9.7,10.4c0.8,5.9-1.6,9.9-7.1,11.6c0,3.9,0,7.5,0,11.1C1009.1,190.9,971.9,190.9,934.7,190.9z M993.5,186.3
			c-1.9-10.8-6.1-19.5-15.7-24.8c-3.6-2-3.6-3.5-0.2-6.1c6.1-4.7,9.2-10.6,8.6-18.6c-0.5-7.4-4.4-12.5-10.4-16.1
			c-6.4-3.8-13.3-4-19.6-0.3c-14.2,8.3-14.6,26.2-1.5,35.3c3,2.1,2.7,3.3-0.3,5.4c-2.9,2-5.8,4.3-8.2,6.9c-4.6,5-6.9,11.3-7.8,18
			c3.9,1.2,6.6,0.6,7.9-3.9c0.6-2.2,2.2-4.1,3.3-6.1c0.4,0.2,0.7,0.3,1.1,0.5c-0.2,3.2-0.3,6.3-0.5,9.7
			C964.3,186.3,978.5,186.3,993.5,186.3z M1030.4,186.4c0-3.7,0-7,0-10.3c0.3-0.1,0.6-0.2,0.9-0.3c1.8,3.5,3.5,7,5.3,10.5
			c1.6,0,3.5,0,5.7,0c-1.8-10.7-6-19.3-15.6-24.7c-3.7-2-3.6-3.5-0.3-6.1c6.6-5.2,10.3-11.7,8.6-20.3c-2.5-12.7-13.3-19.1-25.3-16.6
			c-8.6,1.8-13.8,8.3-15.3,16.6c-1.5,7.9,1.5,14.8,8.3,19.7c1.3,0.9,2.2,2.5,3.3,3.7c-0.1,0.4-0.3,0.8-0.4,1.2c-7.2,0-14.4,0-21.2,0
			c8.1,6.5,12.1,15.8,13.6,26.5C1008.8,186.4,1019.3,186.4,1030.4,186.4z M947.3,159.1c-4.9-0.9-9.1,1.4-12.6,4.2
			c-1.9,1.5-2.5,5.2-2.6,7.9c-0.1,1.5,2.2,3.1,3.1,4.2C939.6,169.6,943.4,164.4,947.3,159.1z M1035.6,160.9
			c2.6,4.2,5.3,8.1,7.6,12.2c1.2,2.1,2.1,2.4,3.9,0.8c2-1.8,2.5-3.7,1.5-6.2C1046.7,163.4,1041.7,160.7,1035.6,160.9z M985.7,154.8
			c3.5,0.3,6.5,0.5,9.8,0.8c-2.1-3.6-3.7-6.5-5.3-9.3C988.9,148.9,987.6,151.3,985.7,154.8z"/>
	</g>
</g>
<g id="ico1">
	<g>
		<g id="XMLID_1013_">
			<g id="XMLID_1738_">
				<path class="st0" d="M188.8,582c-3.5,0-6.9-1.5-9.6-4.2l-22.7-22.7c-2.4-2.4-3.8-5.6-3.8-9.1c0-3.4,1.3-6.6,3.8-9.1
					c2.4-2.4,5.6-3.8,9.1-3.8c3.4,0,6.6,1.3,9.1,3.8l11.9,11.9l19.3-32c2.3-3.9,6.5-6.2,11-6.2c2.3,0,4.6,0.6,6.6,1.8
					c6.1,3.7,8,11.5,4.4,17.6l-27.4,45.4C197.5,579.7,193.3,582,188.8,582z M165.6,537.3c-2.4,0-4.6,0.9-6.2,2.6
					c-3.4,3.4-3.4,9.1,0,12.5l22.7,22.7c1.9,1.9,4.3,3,6.8,3c3.2,0,6.1-1.7,8.3-4.7l27.2-45.2c2.5-4.2,1.2-9.6-3-12.1
					c-1.4-0.8-3-1.3-4.6-1.3c-3.1,0-6,1.6-7.6,4.3l-21.9,36.3l-15.5-15.5C170.2,538.2,167.9,537.3,165.6,537.3z"/>
			</g>
		</g>
		<path class="st0" d="M155,473.6h-6.5c5-4.1,8.3-10.3,8.3-17.3v-10.8c0-12.3-10-22.3-22.3-22.3c-12.3,0-22.3,10-22.3,22.3v10.8
			c0,7,3.2,13.2,8.3,17.3h-6.5c-18.7,0-33.9,15.2-33.9,33.9c0,5.2,1.2,10.3,3.5,14.9c0.7,2.4,2,4.6,3.9,6.2c0,0,0,0,0,0
			c0.4,0.5,0.9,0.8,1.4,1.1c2,1.3,4.4,2.1,7,2.1c7,0,12.8-5.7,12.8-12.8c0-5.7-3.7-10.5-8.9-12.2c0.3-7.5,6.5-13.5,14.1-13.6v37v8
			v28.8H111c-4.2,0-7.6,3.4-7.6,7.7c0,4.2,3.4,7.7,7.6,7.7h6.5h8.3h3.9c2.1,0,3.7-1.7,3.7-3.7V542h1.9v36.7c0,2.1,1.7,3.7,3.7,3.7
			h3.9h8.3h6.5c4.2,0,7.6-3.4,7.6-7.7c0-4.2-3.4-7.7-7.6-7.7h-2.8v-28.8v-8v-37c7.6,0.1,13.7,6.1,14.1,13.6
			c-5.1,1.7-8.9,6.5-8.9,12.2c0,7,5.7,12.8,12.8,12.8c2.6,0,5-0.8,7-2.1c0.5-0.2,1-0.6,1.4-1.1c0,0,0,0,0,0c1.8-1.6,3.2-3.8,3.9-6.2
			c2.3-4.6,3.5-9.7,3.5-14.9C188.9,488.8,173.7,473.6,155,473.6z M181.9,521.1c-0.5,2-1.6,3.7-3.2,5c-0.1,0.1-0.1,0.2-0.2,0.2
			l-0.1-0.1c-1.5,1.1-3.4,1.8-5.4,1.8c-5,0-9-4-9-9c0-4.9,3.9-8.8,8.7-9c0.1-0.8,0.2-1.7,0.2-2.5c0-9.9-8-17.9-17.9-17.9h-3.6v40.8
			v8v32.6h6.5c2.2,0,3.9,1.8,3.9,3.9c0,2.2-1.8,3.9-3.9,3.9h-6.5h-8.3h-3.9v-40.4h-9.4v40.4h-3.9h-8.3H111c-2.2,0-3.9-1.8-3.9-3.9
			c0-2.2,1.8-3.9,3.9-3.9h6.5v-32.6v-8v-40.8h-3.6c-9.9,0-17.9,8-17.9,17.9c0,0.9,0.1,1.7,0.2,2.5c4.8,0.2,8.7,4.1,8.7,9
			c0,5-4,9-9,9c-2,0-3.9-0.7-5.4-1.8l-0.1,0.1c-0.1-0.1-0.1-0.2-0.2-0.2c-1.6-1.2-2.7-3-3.2-5c-2.1-4.2-3.3-8.9-3.3-13.6
			c0-16.6,13.5-30.2,30.2-30.2h12h1v-4.1c-6.4-2.9-10.9-9.4-10.9-16.9v-10.8c0-10.3,8.3-18.6,18.6-18.6c10.3,0,18.6,8.3,18.6,18.6
			v10.8c0,7.5-4.5,14-10.9,16.9v4.1h1h12c16.6,0,30.2,13.5,30.2,30.2C185.1,512.2,184,516.9,181.9,521.1z"/>
	</g>
</g>
<g id="_x31__1_">
	<path class="st0" d="M720.5,498.8c-24.7,0-44.7,20-44.7,44.7c0,24.7,20,44.7,44.7,44.7c24.7,0,44.7-20,44.7-44.7
		C765.1,518.8,745.1,498.8,720.5,498.8z M727.8,514.8v57.5c0,3-2.5,5.4-5.5,5.4c-3,0-5.4-2.3-5.4-5.4v-47.9l-3.9,2.2
		c-0.9,0.6-1.9,0.8-2.7,0.8c-1.9,0-3.6-1-4.6-2.7c-1.7-2.4-0.8-5.8,1.8-7.3l12-7.1c0.1-0.1,0.3-0.1,0.4-0.2c0.2,0,0.3-0.2,0.5-0.3
		c0.2,0,0.4-0.1,0.6-0.1c0.1-0.1,0.3-0.1,0.4-0.1c0.2-0.1,0.5-0.1,0.7-0.1c0.1,0,0.2,0,0.3,0h0.1c0.3,0,0.5,0,0.7,0
		c0.1,0.1,0.3,0.1,0.4,0.1c0.3,0,0.4,0.1,0.6,0.2c0.1,0,0.3,0,0.4,0.1c0.3,0.2,0.4,0.3,0.6,0.3c0.1,0.1,0.2,0.2,0.4,0.3
		c0.1,0.1,0.3,0.2,0.4,0.3c0.2,0.1,0.3,0.3,0.4,0.4s0.2,0.2,0.3,0.4c0.1,0.1,0.3,0.3,0.4,0.4l0.1,0.2c0,0.1,0.1,0.2,0.1,0.3
		c0.1,0.2,0.2,0.3,0.2,0.5c0.1,0.2,0.1,0.4,0.2,0.5c0,0.2,0.1,0.4,0.1,0.5c0,0.3,0,0.5,0.2,0.7C727.8,514.6,727.8,514.7,727.8,514.8
		z"/>
</g>
<g id="txt1">
	<g>
		<path class="st0" d="M254.9,547.1c0.1-10.5,8.9-19.1,19.5-19.1c4.7,0,8.9,1.5,12.3,4.1c1.3,1.1,1.5,2.9,0.5,4.3
			c-1.1,1.3-3,1.5-4.3,0.6c-2.3-1.9-5.3-2.9-8.6-2.9c-3.7,0-7.1,1.5-9.6,3.8c-2.4,2.4-3.9,5.6-3.9,9.3c0,3.6,1.5,6.9,3.9,9.3
			c2.5,2.3,5.9,3.8,9.6,3.8c3.3,0,6.2-1,8.6-2.9c1.2-0.9,3.2-0.7,4.3,0.6c1,1.3,0.7,3.2-0.5,4.3c-3.4,2.6-7.6,4.1-12.3,4.1
			C263.8,566.2,254.9,557.6,254.9,547.1z"/>
		<path class="st0" d="M313.4,542.4c0,1.5-1.2,2.8-2.8,2.8c-1.2,0-2.3,0.3-3.2,1c-1,0.6-1.8,1.5-2.4,2.6c-1.3,1.7-1.9,3.7-2.2,4.5
			v10.1c0,1.5-1.3,2.8-2.9,2.8c-1.5,0-2.8-1.3-2.8-2.8v-21c0-1.5,1.3-2.8,2.8-2.8c1.6,0,2.9,1.2,2.9,2.8v0.4
			c0.3-0.4,0.7-0.8,1.1-1.1c1.8-1.2,4-2.1,6.7-2.1C312.1,539.7,313.4,540.9,313.4,542.4z"/>
		<path class="st0" d="M318.5,552.9c0.1-7.2,5.7-13.3,13-13.3c6.9,0,12.4,5.2,12.8,12.3c0,0.1,0,0.2,0,0.3c0,0.1,0,0.4-0.1,0.5
			c-0.2,1.3-1.3,2.1-2.8,2.1h-16.9c0.3,1.2,0.9,2.6,1.8,3.5c1.1,1.3,3.2,2.2,5.1,2.4c1.9,0.2,4.2-0.3,5.5-1.3c1.1-1.2,3.3-1,4-0.2
			c0.7,0.7,1.2,2.3,0,3.5c-2.6,2.4-5.7,3.5-9.5,3.5C324.2,566.2,318.5,560.1,318.5,552.9z M324.3,550.3h15.1
			c-0.5-2.1-3.2-5.3-7.9-5.6C326.9,544.9,324.7,548.1,324.3,550.3z M332.7,534.8c0-0.4,0.2-0.9,0.4-1.2l3-4.7c0.6-1,1.4-1.5,2.6-1.5
			c1.7,0,3.8,1.1,3.8,2.1c0,0.6-0.4,1.1-0.9,1.6l-3.6,3.4c-1.3,1.2-2.3,1.4-3.8,1.4C333.4,535.9,332.7,535.5,332.7,534.8z"/>
		<path class="st0" d="M350.9,552.9c0.1-7.2,5.7-13.3,13-13.3c6.9,0,12.4,5.2,12.8,12.3c0,0.1,0,0.2,0,0.3c0,0.1,0,0.4-0.1,0.5
			c-0.2,1.3-1.3,2.1-2.8,2.1h-16.9c0.3,1.2,0.9,2.6,1.8,3.5c1.1,1.3,3.2,2.2,5.1,2.4c1.9,0.2,4.2-0.3,5.5-1.3c1.1-1.2,3.3-1,4-0.2
			c0.7,0.7,1.2,2.3,0,3.5c-2.6,2.4-5.7,3.5-9.5,3.5C356.5,566.2,350.9,560.1,350.9,552.9z M356.7,550.3h15.1
			c-0.5-2.1-3.2-5.3-7.9-5.6C359.3,544.9,357.1,548.1,356.7,550.3z"/>
		<path class="st0" d="M400.4,542.4c0,1.5-1.2,2.8-2.8,2.8c-1.2,0-2.3,0.3-3.2,1c-1,0.6-1.8,1.5-2.4,2.6c-1.3,1.7-1.9,3.7-2.2,4.5
			v10.1c0,1.5-1.3,2.8-2.9,2.8c-1.5,0-2.8-1.3-2.8-2.8v-21c0-1.5,1.3-2.8,2.8-2.8c1.6,0,2.9,1.2,2.9,2.8v0.4
			c0.3-0.4,0.7-0.8,1.1-1.1c1.8-1.2,4-2.1,6.7-2.1C399.2,539.7,400.4,540.9,400.4,542.4z"/>
		<path class="st0" d="M435.3,542.5c0,1.6-1.4,2.9-3,2.9H431v14.8c1.6,0,2.9,1.3,2.9,3s-1.3,2.9-2.9,2.9c-3.2,0-5.9-2.7-5.9-5.9
			v-14.8h-1.5c-1.6,0-2.9-1.3-2.9-2.9c0-1.6,1.3-2.9,2.9-2.9h1.5v-7.7c0-1.6,1.3-2.9,3-2.9c1.6,0,2.9,1.3,2.9,2.9v7.7h1.3
			C433.9,539.6,435.3,540.9,435.3,542.5z"/>
		<path class="st0" d="M446.2,562.3c-2.3-2.3-3.7-5.6-3.7-9.4c0-3.6,1.4-6.8,3.7-9.3c2.4-2.5,5.5-4,9.1-4c3.5,0,6.7,1.5,8.9,4
			c2.4,2.6,3.7,5.7,3.7,9.3c0,3.7-1.3,7-3.7,9.4c-2.2,2.5-5.4,4-8.9,4C451.7,566.4,448.6,564.8,446.2,562.3z M448.4,553
			c0,2.3,0.7,4.1,1.9,5.6c1.3,1.3,3.1,2,5.1,2c1.9,0,3.6-0.7,4.9-2c1.3-1.5,2.1-3.4,2.1-5.6c0-2.2-0.7-4.1-2.1-5.5
			c-1.3-1.2-3-2-4.9-2c-2,0-3.8,0.9-5.1,2C449.1,548.9,448.4,550.8,448.4,553z"/>
		<path class="st0" d="M499.2,550.7v12.7c0,1.5-1.2,2.8-2.8,2.8c-1.5,0-2.8-1.3-2.8-2.8v-12.7c0-3-2.5-5.4-5.5-5.4
			c-3,0-5.3,2.4-5.3,5.4v12.7c0,0.2,0,0.3-0.1,0.5c-0.3,1.3-1.4,2.3-2.8,2.3c-1.6,0-2.8-1.3-2.8-2.8v-12.7v-8.2
			c0-1.5,1.2-2.8,2.8-2.8c1.1,0,2.1,0.6,2.6,1.6c1.6-1,3.6-1.6,5.6-1.6C494.3,539.6,499.2,544.7,499.2,550.7z"/>
		<path class="st0" d="M525.6,573.3V553c0,0,0,0,0-0.1v-10.5c0-1.5,1.3-2.8,2.8-2.8c1.5,0,2.7,1,2.9,2.2c2-1.3,4.5-2.2,7.2-2.2
			c7.1,0,12.9,6.1,12.9,13.4s-5.8,13.2-12.9,13.2c-2.7,0-5.2-0.8-7.1-2.2v9.4c0,1.5-1.3,2.9-3,2.9
			C526.9,576.2,525.6,574.8,525.6,573.3z M531.4,553c0,2.1,0.7,4.1,2.1,5.3c1.3,1.5,3.1,2.2,5.1,2.2c1.8,0,3.6-0.7,5-2.2
			c1.2-1.2,2.1-3.2,2.1-5.3c0-2.1-0.9-4-2.1-5.4c-1.4-1.4-3.2-2.2-5-2.2c-2,0-3.7,0.7-5.1,2.2C532.1,549,531.4,550.9,531.4,553z"/>
		<path class="st0" d="M577.1,542.4c0,1.5-1.2,2.8-2.8,2.8c-1.2,0-2.3,0.3-3.2,1c-1,0.6-1.8,1.5-2.4,2.6c-1.3,1.7-1.9,3.7-2.2,4.5
			v10.1c0,1.5-1.3,2.8-2.9,2.8c-1.5,0-2.8-1.3-2.8-2.8v-21c0-1.5,1.3-2.8,2.8-2.8c1.6,0,2.9,1.2,2.9,2.8v0.4
			c0.3-0.4,0.7-0.8,1.1-1.1c1.8-1.2,4-2.1,6.7-2.1C575.9,539.7,577.1,540.9,577.1,542.4z"/>
		<path class="st0" d="M585.2,562.3c-2.3-2.3-3.7-5.6-3.7-9.4c0-3.6,1.4-6.8,3.7-9.3c2.4-2.5,5.5-4,9.1-4c3.5,0,6.7,1.5,8.9,4
			c2.4,2.6,3.7,5.7,3.7,9.3c0,3.7-1.3,7-3.7,9.4c-2.2,2.5-5.4,4-8.9,4C590.7,566.4,587.6,564.8,585.2,562.3z M587.3,553
			c0,2.3,0.7,4.1,1.9,5.6c1.3,1.3,3.1,2,5.1,2c1.9,0,3.6-0.7,4.9-2c1.3-1.5,2.1-3.4,2.1-5.6c0-2.2-0.7-4.1-2.1-5.5
			c-1.3-1.2-3-2-4.9-2c-2,0-3.8,0.9-5.1,2C588,548.9,587.3,550.8,587.3,553z"/>
		<path class="st0" d="M622.8,537.9v0.7h1.6c1.6,0,2.9,1.3,2.9,2.9c0,1.6-1.3,2.9-2.9,2.9h-1.6v18.8c0,1.6-1.3,2.9-2.9,2.9
			c-1.6,0-2.9-1.3-2.9-2.9v-18.8h-1.4c-1.6,0-3-1.3-3-2.9c0-1.6,1.3-2.9,3-2.9h1.4v-0.7c0-2,0.2-3.7,1-5.2c0.7-1.6,2.2-2.8,3.8-3.3
			c1.1-0.3,2.1-0.4,3.2-0.4c1.6,0,2.9,1.3,2.9,2.9c0,1.6-1.3,3-2.9,3c-0.7,0-1.2,0.1-1.4,0.2c-0.2,0.1-0.3,0.1-0.3,0.2
			C623.3,535.1,622.8,535.9,622.8,537.9z"/>
		<path class="st0" d="M639.2,533c0,1.6-1.2,2.9-2.9,2.9c-1.6,0-2.9-1.3-2.9-2.9v-1.1c0-1.6,1.3-2.9,2.9-2.9c1.6,0,2.9,1.3,2.9,2.9
			V533z M639.2,542.6v20.7c0,1.6-1.2,2.9-2.9,2.9c-1.6,0-2.9-1.3-2.9-2.9v-20.7c0-1.7,1.3-2.9,2.9-2.9
			C637.9,539.7,639.2,540.9,639.2,542.6z"/>
		<path class="st0" d="M650.5,529c1.6,0,3,1.3,3,2.9v31.4c0,1.6-1.3,2.9-3,2.9c-1.6,0-2.9-1.3-2.9-2.9v-31.4
			C647.6,530.3,648.9,529,650.5,529z"/>
	</g>
</g>
<g id="_x32_">
	<path class="st0" d="M990.2,769.2c-24.7,0-44.7,20-44.7,44.7s20,44.7,44.7,44.7s44.7-20,44.7-44.7S1014.9,769.2,990.2,769.2z
		 M1006.5,834.3c3,0,5.3,2.4,5.3,5.3c0,3-2.3,5.3-5.3,5.3h-33.8c0,0,0,0-0.1,0h-0.1c-1.4,0-3-0.6-3.9-1.7c-2-2.2-1.8-5.4,0.3-7.4
		l28.3-25.6c2.8-2.5,4-5.7,4-9.2c0-3.1-1.1-5.9-3.2-8.3c-2.5-2.8-5.8-4-9.2-4c-3,0-5.9,1.1-8.3,3.2l-3,2.7c-2.2,2-5.4,1.8-7.4-0.4
		c-1.9-2.2-1.8-5.4,0.4-7.4l3-2.7c4.3-4,9.9-5.9,15.4-5.9c6.2,0,12.5,2.6,17,7.5c4,4.3,5.9,9.9,5.9,15.4c0,6.2-2.6,12.5-7.5,17
		l-18.1,16.3H1006.5z"/>
</g>
<g id="txt2">
	<g>
		<path class="st0" d="M690.8,901.8c0.5,1.5-0.3,3.2-1.9,3.7c-0.2,0.1-0.6,0.2-1.2,0.2c0,0,0,0-0.1,0c-0.5,0-1.3-0.1-2.1-0.6
			c-0.7-0.4-1.3-1.1-1.7-1.9c-0.7-1.5-1.1-3.5-1.1-6.4c-0.1-1-0.3-1.7-0.6-2.3c-0.3-0.6-1-1.1-1.6-1.5c-1.1-0.7-2.5-1.2-3-1.3h-6.3
			v11.5c0,1.6-1.3,2.9-3,2.9s-2.9-1.3-2.9-2.9v-31.4c0-1.6,1.3-2.9,2.9-2.9c0,0,0,0,0.1,0h9.5c6.3,0,11.4,5.1,11.4,11.4
			c0,3.5-1.6,6.6-4.1,8.7c0.7,0.5,1.3,1.2,1.9,2c1.1,1.5,1.8,3.5,1.8,5.7c-0.1,1.6,0.1,2.6,0.2,3.1
			C689.8,900.3,690.5,900.9,690.8,901.8z M683.4,880.4c0-3.1-2.4-5.5-5.5-5.5h-6.5v11h6.5C680.9,885.8,683.4,883.4,683.4,880.4z"/>
		<path class="st0" d="M696.5,892.9c0.1-7.2,5.7-13.3,13-13.3c6.9,0,12.4,5.2,12.8,12.3c0,0.1,0,0.2,0,0.3s0,0.4-0.1,0.5
			c-0.2,1.3-1.3,2.1-2.8,2.1h-16.9c0.3,1.2,0.9,2.6,1.8,3.5c1.1,1.3,3.2,2.2,5.1,2.4c1.9,0.2,4.2-0.3,5.5-1.3c1.1-1.2,3.3-1,4-0.2
			c0.7,0.7,1.2,2.3,0,3.5c-2.6,2.4-5.7,3.5-9.5,3.5C702.2,906.2,696.5,900.1,696.5,892.9z M702.3,890.3h15.1
			c-0.5-2.1-3.2-5.3-7.9-5.6C704.9,884.9,702.7,888.1,702.3,890.3z"/>
		<path class="st0" d="M728.9,893c0-7.4,6.2-13.3,13.5-13.4c3.2,0,6.2,1.2,8.5,2.9c1.2,1,1.4,2.8,0.6,3.9c-1.1,1.3-2.8,1.5-4,0.5
			c-1.4-1-3.1-1.7-5.1-1.7c-4.3,0-7.9,3.6-7.9,7.7c0,4.1,3.6,7.6,7.9,7.6c1.9,0,3.7-0.7,5.1-1.7c1.2-0.9,2.9-0.7,4,0.6
			c0.9,1.2,0.6,2.9-0.6,3.9c-2.3,1.6-5.3,2.8-8.5,2.8C735,906.2,728.9,900.3,728.9,893z"/>
		<path class="st0" d="M767,903.3c0,1.6-1.3,2.9-3,2.9c-1.3,0-2.4-1-2.8-2.2c-0.1-0.2-0.1-0.5-0.1-0.7v-31.4c0-1.6,1.3-2.9,2.9-2.9
			c1.6,0,3,1.3,3,2.9v9.3c1.7-0.9,3.6-1.5,5.7-1.5c6.4,0,11.6,5.3,11.6,11.6v12c0,1.6-1.3,2.9-2.9,2.9c-1.6,0-2.9-1.3-2.9-2.9v-12
			c0-3.1-2.6-5.7-5.7-5.7c-3.1,0.1-5.6,2.6-5.7,5.7V903.3z"/>
		<path class="st0" d="M791.9,892.9c0.1-7.2,5.7-13.3,13-13.3c6.9,0,12.4,5.2,12.8,12.3c0,0.1,0,0.2,0,0.3s0,0.4-0.1,0.5
			c-0.2,1.3-1.3,2.1-2.8,2.1h-16.9c0.3,1.2,0.9,2.6,1.8,3.5c1.1,1.3,3.2,2.2,5.1,2.4c1.9,0.2,4.2-0.3,5.5-1.3c1.1-1.2,3.3-1,4-0.2
			c0.7,0.7,1.2,2.3,0,3.5c-2.6,2.4-5.7,3.5-9.5,3.5C797.5,906.2,791.9,900.1,791.9,892.9z M797.7,890.3h15.1
			c-0.5-2.1-3.2-5.3-7.9-5.6C800.3,884.9,798.1,888.1,797.7,890.3z"/>
		<path class="st0" d="M841.4,882.4c0,1.5-1.2,2.8-2.8,2.8c-1.2,0-2.3,0.3-3.2,1c-1,0.6-1.8,1.5-2.4,2.6c-1.3,1.7-1.9,3.7-2.2,4.5
			v10.1c0,1.5-1.3,2.8-2.9,2.8c-1.5,0-2.8-1.3-2.8-2.8v-21c0-1.5,1.3-2.8,2.8-2.8c1.6,0,2.9,1.2,2.9,2.8v0.4
			c0.3-0.4,0.7-0.8,1.1-1.1c1.8-1.2,4-2.1,6.7-2.1C840.2,879.7,841.4,880.9,841.4,882.4z"/>
		<path class="st0" d="M845.2,893c0-7.4,6.2-13.3,13.5-13.4c3.2,0,6.2,1.2,8.5,2.9c1.2,1,1.4,2.8,0.6,3.9c-1.1,1.3-2.8,1.5-4,0.5
			c-1.4-1-3.1-1.7-5.1-1.7c-4.3,0-7.9,3.6-7.9,7.7c0,4.1,3.6,7.6,7.9,7.6c1.9,0,3.7-0.7,5.1-1.7c1.2-0.9,2.9-0.7,4,0.6
			c0.9,1.2,0.6,2.9-0.6,3.9c-2.3,1.6-5.3,2.8-8.5,2.8C851.3,906.2,845.2,900.3,845.2,893z"/>
		<path class="st0" d="M883.3,903.3c0,1.6-1.3,2.9-3,2.9c-1.3,0-2.4-1-2.8-2.2c-0.1-0.2-0.1-0.5-0.1-0.7v-31.4
			c0-1.6,1.3-2.9,2.9-2.9c1.6,0,3,1.3,3,2.9v9.3c1.7-0.9,3.6-1.5,5.7-1.5c6.4,0,11.6,5.3,11.6,11.6v12c0,1.6-1.3,2.9-2.9,2.9
			c-1.6,0-2.9-1.3-2.9-2.9v-12c0-3.1-2.6-5.7-5.7-5.7c-3.1,0.1-5.6,2.6-5.7,5.7V903.3z"/>
		<path class="st0" d="M908.1,892.9c0.1-7.2,5.7-13.3,13-13.3c6.9,0,12.4,5.2,12.8,12.3c0,0.1,0,0.2,0,0.3s0,0.4-0.1,0.5
			c-0.2,1.3-1.3,2.1-2.8,2.1h-16.9c0.3,1.2,0.9,2.6,1.8,3.5c1.1,1.3,3.2,2.2,5.1,2.4c1.9,0.2,4.2-0.3,5.5-1.3c1.1-1.2,3.3-1,4-0.2
			c0.7,0.7,1.2,2.3,0,3.5c-2.6,2.4-5.7,3.5-9.5,3.5C913.8,906.2,908.2,900.1,908.1,892.9z M913.9,890.3H929
			c-0.5-2.1-3.2-5.3-7.9-5.6C916.6,884.9,914.4,888.1,913.9,890.3z"/>
		<path class="st0" d="M689.7,967.2c0,1.5-1.3,2.9-2.9,2.9c-1.4,0-2.6-1-2.8-2.3c-2,1.4-4.6,2.3-7.2,2.3c-7.2,0-12.9-6.1-12.9-13.2
			c0-7.3,5.7-13.4,12.9-13.4c2.6,0,5.2,0.9,7.1,2.2v-10c0-1.5,1.3-2.9,2.9-2.9c1.6,0,2.9,1.3,2.9,2.9v21.1c0,0,0,0,0,0.1V967.2z
			 M676.8,949.2c-1.9,0-3.7,0.8-5,2.2c-1.3,1.3-2.1,3.2-2.1,5.4c0,2,0.8,3.9,2.1,5.3c1.3,1.4,3.1,2.2,5,2.2c2,0,3.7-0.8,5-2.2
			c1.3-1.3,2.1-3.2,2.1-5.3c0-2.1-0.8-4-2.1-5.4C680.5,950,678.8,949.2,676.8,949.2z"/>
		<path class="st0" d="M698.1,956.7c0.1-7.2,5.7-13.3,13-13.3c6.9,0,12.4,5.2,12.8,12.3c0,0.1,0,0.2,0,0.3c0,0.1,0,0.4-0.1,0.5
			c-0.2,1.3-1.3,2.1-2.8,2.1h-16.9c0.3,1.2,0.9,2.6,1.8,3.5c1.1,1.3,3.2,2.2,5.1,2.4c1.9,0.2,4.2-0.3,5.5-1.3c1.1-1.2,3.3-1,4-0.2
			c0.7,0.7,1.2,2.3,0,3.5c-2.6,2.4-5.7,3.5-9.5,3.5C703.8,970,698.1,964,698.1,956.7z M703.9,954.1h15.1c-0.5-2.1-3.2-5.3-7.9-5.6
			C706.5,948.7,704.3,952,703.9,954.1z"/>
		<path class="st0" d="M731.1,962.4c1-1.3,2.8-1.4,4-0.4c1.4,1.2,3.8,2.4,5.9,2.3c1.4,0,2.8-0.5,3.6-1c0.7-0.6,1-1.2,1-1.6
			c0-0.3-0.1-0.4-0.2-0.5c-0.1-0.2-0.3-0.4-0.7-0.6c-0.7-0.5-2.3-1.1-4.3-1.5h-0.1c-1.6-0.3-3.2-0.7-4.6-1.4
			c-1.4-0.7-2.7-1.6-3.7-3.1c-0.6-1-0.9-2.1-0.9-3.4c0-2.4,1.4-4.5,3.1-5.9c1.9-1.3,4.1-2,6.5-2c3.7,0,6.3,1.8,8,2.9
			c1.3,0.9,1.6,2.6,0.9,3.9c-0.9,1.3-2.6,1.6-3.9,0.7c-1.7-1.1-3.2-2-4.9-2c-1.3,0-2.5,0.4-3.2,1c-0.7,0.5-0.9,1-0.9,1.2
			c0,0.2,0,0.3,0.1,0.4c0.1,0.1,0.2,0.3,0.6,0.5c0.7,0.5,2.1,1,3.9,1.3l0.1,0.1h0.1c1.8,0.3,3.4,0.8,4.9,1.5
			c1.4,0.6,2.9,1.6,3.8,3.1c0.6,1.1,1,2.3,1,3.5c0,2.6-1.4,4.8-3.4,6.2c-1.9,1.3-4.3,2.1-6.9,2.1c-4.1-0.1-7.3-2-9.5-3.7
			C730.3,965.4,730.1,963.6,731.1,962.4z"/>
		<path class="st0" d="M769.2,976.5c0-1.5,1.2-2.8,2.9-2.8v-27.3c0-1.6,1.3-2.9,2.9-2.9c1.6,0,2.9,1.3,2.9,2.9v27.3
			c0,3.1-2.6,5.7-5.7,5.7C770.5,979.5,769.2,978.2,769.2,976.5z M772.2,936.9v-1.1c0-1.7,1.3-2.9,2.9-2.9c1.6,0,2.9,1.2,2.9,2.9v1.1
			c0,1.5-1.3,2.9-2.9,2.9C773.6,939.8,772.2,938.4,772.2,936.9z"/>
		<path class="st0" d="M790.2,966.2c-2.3-2.3-3.7-5.6-3.7-9.4c0-3.6,1.4-6.8,3.7-9.3c2.4-2.5,5.5-4,9.1-4c3.5,0,6.7,1.5,8.9,4
			c2.4,2.6,3.7,5.7,3.7,9.3c0,3.7-1.3,7-3.7,9.4c-2.2,2.5-5.4,4-8.9,4C795.6,970.2,792.5,968.7,790.2,966.2z M792.3,956.8
			c0,2.3,0.7,4.1,1.9,5.6c1.3,1.3,3.1,2,5.1,2c1.9,0,3.6-0.7,4.9-2c1.3-1.5,2.1-3.4,2.1-5.6c0-2.2-0.7-4.1-2.1-5.5
			c-1.3-1.2-3-2-4.9-2c-2,0-3.8,0.9-5.1,2C793,952.7,792.3,954.6,792.3,956.8z"/>
		<path class="st0" d="M830.6,970c-6.1,0-11.1-5-11.1-11.1v-12.7c0-1.5,1.3-2.8,2.8-2.8c1.6,0,2.8,1.3,2.8,2.8V959
			c0,3,2.4,5.4,5.4,5.4c3.1,0,5.5-2.4,5.6-5.4v-12.7c0-1.5,1.2-2.8,2.8-2.8c1.5,0,2.9,1.3,2.9,2.8V959
			C841.9,965,836.7,970,830.6,970z"/>
		<path class="st0" d="M850.8,956.7c0.1-7.2,5.7-13.3,13-13.3c6.9,0,12.4,5.2,12.8,12.3c0,0.1,0,0.2,0,0.3c0,0.1,0,0.4-0.1,0.5
			c-0.2,1.3-1.3,2.1-2.8,2.1h-16.9c0.3,1.2,0.9,2.6,1.8,3.5c1.1,1.3,3.2,2.2,5.1,2.4c1.9,0.2,4.2-0.3,5.5-1.3c1.1-1.2,3.3-1,4-0.2
			c0.7,0.7,1.2,2.3,0,3.5c-2.6,2.4-5.7,3.5-9.5,3.5C856.5,970,850.9,964,850.8,956.7z M856.6,954.1h15.1c-0.5-2.1-3.2-5.3-7.9-5.6
			C859.3,948.7,857.1,952,856.6,954.1z"/>
		<path class="st0" d="M895.6,970c-6.1,0-11.1-5-11.1-11.1v-12.7c0-1.5,1.3-2.8,2.8-2.8c1.6,0,2.8,1.3,2.8,2.8V959
			c0,3,2.4,5.4,5.4,5.4c3.1,0,5.5-2.4,5.6-5.4v-12.7c0-1.5,1.2-2.8,2.8-2.8c1.5,0,2.9,1.3,2.9,2.8V959
			C906.9,965,901.8,970,895.6,970z"/>
		<path class="st0" d="M934.1,946.3c0,1.5-1.2,2.8-2.8,2.8c-1.2,0-2.3,0.3-3.2,1c-1,0.6-1.8,1.5-2.4,2.6c-1.3,1.7-1.9,3.7-2.2,4.5
			v10.1c0,1.5-1.3,2.8-2.9,2.8c-1.5,0-2.8-1.3-2.8-2.8v-21c0-1.5,1.3-2.8,2.8-2.8c1.6,0,2.9,1.2,2.9,2.8v0.4
			c0.3-0.4,0.7-0.8,1.1-1.1c1.8-1.2,4-2.1,6.7-2.1C932.9,943.5,934.1,944.7,934.1,946.3z"/>
		<path class="st0" d="M939.8,962.4c1-1.3,2.8-1.4,4-0.4c1.4,1.2,3.8,2.4,5.9,2.3c1.4,0,2.8-0.5,3.6-1c0.7-0.6,1-1.2,1-1.6
			c0-0.3-0.1-0.4-0.2-0.5c-0.1-0.2-0.3-0.4-0.7-0.6c-0.7-0.5-2.3-1.1-4.3-1.5H949c-1.6-0.3-3.2-0.7-4.6-1.4
			c-1.4-0.7-2.7-1.6-3.7-3.1c-0.6-1-0.9-2.1-0.9-3.4c0-2.4,1.4-4.5,3.1-5.9c1.9-1.3,4.1-2,6.5-2c3.7,0,6.3,1.8,8,2.9
			c1.3,0.9,1.6,2.6,0.9,3.9c-0.9,1.3-2.6,1.6-3.9,0.7c-1.7-1.1-3.2-2-4.9-2c-1.3,0-2.5,0.4-3.2,1c-0.7,0.5-0.9,1-0.9,1.2
			c0,0.2,0,0.3,0.1,0.4c0.1,0.1,0.2,0.3,0.6,0.5c0.7,0.5,2.1,1,3.9,1.3l0.1,0.1h0.1c1.8,0.3,3.4,0.8,4.9,1.5
			c1.4,0.6,2.9,1.6,3.8,3.1c0.6,1.1,1,2.3,1,3.5c0,2.6-1.4,4.8-3.4,6.2c-1.9,1.3-4.3,2.1-6.9,2.1c-4.1-0.1-7.3-2-9.5-3.7
			C939,965.4,938.8,963.6,939.8,962.4z"/>
	</g>
</g>
<g id="ico2">
	<g id="ico2_1_">
		<g>
			<path class="st0" d="M972.8,955.3c0,3.2,1.3,6.3,3.5,8.6c2.4,2.4,5.5,3.5,8.6,3.5c3.1,0,6.2-1.2,8.6-3.5l22-22
				c5.4,2.7,11.5,4.2,17.9,4.2c22.4,0,40.6-18.2,40.6-40.6s-18.2-40.6-40.6-40.6c-22.4,0-40.6,18.2-40.6,40.6
				c0,7.2,1.9,13.9,5.1,19.7l-21.5,21.5C974.1,949,972.8,952,972.8,955.3z M1033.3,941.7c-20,0-36.3-16.3-36.3-36.3
				c0-20,16.3-36.3,36.3-36.3c20,0,36.3,16.3,36.3,36.3C1069.6,925.4,1053.3,941.7,1033.3,941.7z M977.1,955.3
				c0-2.1,0.8-4.1,2.3-5.5l20.9-20.9c3,4.3,6.9,8,11.3,10.8l-21.1,21.1c-3.1,3-8,3-11.1,0C977.9,959.3,977.1,957.4,977.1,955.3z"/>
			<path class="st0" d="M1018.7,890.8c3.9-3.9,9.1-6,14.6-6c4.3,0,8.5,1.3,12,3.9c1,0.7,1.2,2,0.5,3c-0.7,1-2,1.2-3,0.5
				c-2.8-2-6.1-3.1-9.5-3.1c-4.4,0-8.5,1.7-11.6,4.8c-1.3,1.3-2.4,2.8-3.2,4.4c-0.4,0.8-1.1,1.2-1.9,1.2c-0.3,0-0.6-0.1-0.9-0.2
				c-1.1-0.5-1.5-1.8-1-2.9C1015.7,894.4,1017.1,892.5,1018.7,890.8z"/>
			<path class="st0" d="M1001.6,905.4c0,17.5,14.2,31.7,31.7,31.7c17.5,0,31.7-14.2,31.7-31.7c0-17.5-14.2-31.7-31.7-31.7
				C1015.8,873.7,1001.6,887.9,1001.6,905.4z M1005.9,905.4c0-15.1,12.3-27.4,27.4-27.4c15.1,0,27.4,12.3,27.4,27.4
				c0,15.1-12.3,27.4-27.4,27.4C1018.2,932.9,1005.9,920.6,1005.9,905.4z"/>
		</g>
	</g>
	<g>
		<path class="st0" d="M1175.1,935.5c6.8,0,12.4-5.5,12.4-12.4c0-2.8-1-5.4-2.5-7.5c-4.2-9.6-16.3-32.5-39-43.9
			c6.1-3.8,10.3-10.6,10.3-18.4V843c0-11.9-9.7-21.6-21.6-21.6c-11.9,0-21.6,9.7-21.6,21.6v10.4c0,7.1,3.5,13.5,8.8,17.4
			c-20.1,9.2-32.2,27.5-38.2,39c-3.5,2.2-5.8,6.1-5.8,10.5c0,6.8,5.5,12.4,12.4,12.4c6.8,0,12.4-5.5,12.4-12.4c0-1.4-0.2-2.8-0.7-4
			c2-3.5,4.5-7.5,7.7-11.6V930c0,0,0,0,0,0v30.7h-2.7c-4.1,0-7.4,3.3-7.4,7.4c0,4.1,3.3,7.4,7.4,7.4h6.3h8h3.8c2,0,3.6-1.6,3.6-3.6
			v-38.3h3.5l15,34.8c0.2,3.9,3.4,7.1,7.4,7.1h14.4c4.1,0,7.4-3.3,7.4-7.4c0-4.1-3.3-7.4-7.4-7.4h-4.3l-15-34.7v-28.5
			c6.8,6.4,11.7,13.8,14.8,19.6c-1,1.8-1.6,3.9-1.6,6.1C1162.8,929.9,1168.3,935.5,1175.1,935.5z M1145.9,889.8v36.9l16.2,37.6h6.7
			c2.1,0,3.8,1.7,3.8,3.8c0,2.1-1.7,3.8-3.8,3.8h-14.4c-2.1,0-3.8-1.7-3.8-3.8c0-0.1,0-0.2,0-0.4l-16.3-37.7h-9.5v41.9h-3.8h-8h-6.3
			c-2.1,0-3.8-1.7-3.8-3.8c0-2.1,1.7-3.8,3.8-3.8h6.3V930h0v-34.7c-7.2,6.9-12.2,14.8-15.4,20.7c0.7,1.3,1.1,2.7,1.1,4.2
			c0,4.8-3.9,8.7-8.7,8.7s-8.7-3.9-8.7-8.7c0-3.5,2-6.4,4.9-7.9c5.9-11.6,18.7-31.5,40.7-39.9v-2.9c-6.1-2.9-10.3-9.1-10.3-16.3V843
			c0-9.9,8.1-18,18-18s18,8.1,18,18v10.4c0,7.4-4.5,13.7-10.8,16.5v3.9c23.7,10.5,36.1,34.5,40.1,43.7c1.3,1.5,2.1,3.5,2.1,5.6
			c0,4.8-3.9,8.7-8.7,8.7s-8.7-3.9-8.7-8.7c0-2.2,0.8-4.3,2.2-5.8C1164.6,909.6,1157.3,897.9,1145.9,889.8z"/>
		<path class="st0" d="M1252.6,960.7h-4.3l-15-34.7v-37.6h2.8c18.1,0,32.8-14.7,32.8-32.8c0-5.1-1.2-10.1-3.4-14.6
			c-0.7-2.3-2-4.3-3.7-5.9c0,0,0,0,0,0c-0.4-0.5-0.8-0.8-1.4-1c-1.9-1.3-4.3-2-6.8-2c-6.8,0-12.4,5.5-12.4,12.4
			c0,5.5,3.6,10.2,8.6,11.8c-0.3,7.3-6.3,13.2-13.7,13.2h-3.2c4.3-4,7-9.6,7-15.9V843c0-11.9-9.7-21.6-21.6-21.6
			c-11.9,0-21.6,9.7-21.6,21.6v10.4c0,6.3,2.7,11.9,7,15.9h-7.4c-7.4,0-13.4-5.9-13.7-13.2c5-1.6,8.6-6.3,8.6-11.8
			c0-6.8-5.5-12.4-12.4-12.4c-2.5,0-4.8,0.7-6.8,2c-0.5,0.2-1,0.6-1.4,1c0,0,0,0,0,0c-1.8,1.5-3.1,3.6-3.7,5.9
			c-2.2,4.5-3.4,9.5-3.4,14.6c0,17.1,13.1,31.1,29.8,32.7V930c0,0,0,0,0,0.1v30.6h-2.7c-4.1,0-7.4,3.3-7.4,7.4s3.3,7.4,7.4,7.4h6.3
			h8h3.8c2,0,3.6-1.6,3.6-3.6v-38.3h3.5l15,34.8c0.2,3.9,3.4,7.1,7.4,7.1h14.4c4.1,0,7.4-3.3,7.4-7.4S1256.7,960.7,1252.6,960.7z
			 M1252.6,971.9h-14.4c-2.1,0-3.8-1.7-3.8-3.8c0-0.1,0-0.2,0-0.4l-16.3-37.7h-9.5v41.9h-3.8h-8h-6.3c-2.1,0-3.8-1.7-3.8-3.8
			c0-2.1,1.7-3.8,3.8-3.8h6.3V930h0v-45.3h-0.6c-16.1,0-29.2-13.1-29.2-29.2c0-4.6,1.1-9.2,3.2-13.3c0.5-1.9,1.5-3.5,3-4.7
			c0.1-0.1,0.1-0.2,0.2-0.2l0.1,0.1c1.5-1.1,3.3-1.7,5.2-1.7c4.8,0,8.7,3.9,8.7,8.7c0,4.7-3.7,8.6-8.4,8.7c-0.1,0.8-0.2,1.6-0.2,2.4
			c0,9.6,7.8,17.4,17.4,17.4h11.6h2.8v-3.2c-6.1-2.9-10.3-9.1-10.3-16.3V843c0-9.9,8.1-18,18-18c9.9,0,18,8.1,18,18v10.4
			c0,7.4-4.5,13.7-10.8,16.5v3h10.6c9.6,0,17.4-7.8,17.4-17.4c0-0.8-0.1-1.6-0.2-2.4c-4.7-0.2-8.4-4-8.4-8.7c0-4.8,3.9-8.7,8.7-8.7
			c2,0,3.8,0.7,5.2,1.7l0.1-0.1c0.1,0.1,0.1,0.2,0.2,0.2c1.5,1.2,2.5,2.8,3,4.7c2.1,4.1,3.2,8.7,3.2,13.3
			c0,16.1-13.1,29.2-29.2,29.2h-6.4v42l16.2,37.6h6.7c2.1,0,3.8,1.7,3.8,3.8C1256.4,970.2,1254.7,971.9,1252.6,971.9z"/>
		<path class="st0" d="M1333.8,866.7h-6.5c5-4.1,8.3-10.3,8.3-17.3v-10.8c0-12.3-10-22.3-22.3-22.3c-12.3,0-22.3,10-22.3,22.3v10.8
			c0,7,3.2,13.2,8.3,17.3h-6.5c-18.7,0-33.9,15.2-33.9,33.9c0,5.2,1.2,10.3,3.5,14.9c0.7,2.4,2,4.6,3.9,6.2c0,0,0,0,0,0
			c0.4,0.5,0.9,0.8,1.4,1.1c2,1.3,4.4,2.1,7,2.1c7,0,12.8-5.7,12.8-12.8c0-5.7-3.7-10.5-8.9-12.2c0.3-7.5,6.5-13.5,14.1-13.6v37v8
			v28.8h-2.8c-4.2,0-7.6,3.4-7.6,7.7c0,4.2,3.4,7.7,7.6,7.7h6.5h8.3h3.9c2.1,0,3.7-1.7,3.7-3.7v-36.7h1.9v36.7
			c0,2.1,1.7,3.7,3.7,3.7h3.9h8.3h6.5c4.2,0,7.6-3.4,7.6-7.7c0-4.2-3.4-7.7-7.6-7.7h-2.8v-28.8v-8v-37c7.6,0.1,13.7,6.1,14.1,13.6
			c-5.1,1.7-8.9,6.5-8.9,12.2c0,7,5.7,12.8,12.8,12.8c2.6,0,5-0.8,7-2.1c0.5-0.2,1-0.6,1.4-1.1c0,0,0,0,0,0c1.8-1.6,3.2-3.8,3.9-6.2
			c2.3-4.6,3.5-9.7,3.5-14.9C1367.7,881.9,1352.5,866.7,1333.8,866.7z M1360.7,914.2c-0.5,2-1.6,3.7-3.2,5c-0.1,0.1-0.1,0.2-0.2,0.2
			l-0.1-0.1c-1.5,1.1-3.4,1.8-5.4,1.8c-5,0-9-4-9-9c0-4.9,3.9-8.8,8.7-9c0.1-0.8,0.2-1.7,0.2-2.5c0-9.9-8-17.9-17.9-17.9h-3.6v40.8
			v8V964h6.5c2.2,0,3.9,1.8,3.9,3.9c0,2.2-1.8,3.9-3.9,3.9h-6.5h-8.3h-3.9v-40.4h-9.4v40.4h-3.9h-8.3h-6.5c-2.2,0-3.9-1.8-3.9-3.9
			c0-2.2,1.8-3.9,3.9-3.9h6.5v-32.6v-8v-40.8h-3.6c-9.9,0-17.9,8-17.9,17.9c0,0.9,0.1,1.7,0.2,2.5c4.8,0.2,8.7,4.1,8.7,9
			c0,5-4,9-9,9c-2,0-3.9-0.7-5.4-1.8l-0.1,0.1c-0.1-0.1-0.1-0.2-0.2-0.2c-1.6-1.2-2.7-3-3.2-5c-2.1-4.2-3.3-8.9-3.3-13.6
			c0-16.6,13.5-30.2,30.2-30.2h12h1v-4.1c-6.4-2.9-10.9-9.4-10.9-16.9v-10.8c0-10.3,8.3-18.6,18.6-18.6c10.3,0,18.6,8.3,18.6,18.6
			v10.8c0,7.5-4.5,14-10.9,16.9v4.1h1h12c16.6,0,30.2,13.5,30.2,30.2C1364,905.3,1362.8,910,1360.7,914.2z"/>
	</g>
</g>
<g id="ico3">
	<path class="st0" d="M1623.3,557.2v14.6c0,4.2,3.4,7.6,7.5,7.6c4.2,0,7.6-3.4,7.6-7.6v-2.9c6.3-0.1,14.4-0.2,14.4-0.2
		c4.6-0.1,8.6-2.6,10.7-6.7l5.7-11.4l2.8,1.2l16,7.9l0.2,17.2c0,0,0,0.1,0,0.1c0.1,4.1,3.4,7.4,7.5,7.4h14.6c4.2,0,7.6-3.4,7.6-7.6
		c0-4.2-3.4-7.6-7.6-7.6h-2.8l-0.1-14.3c0-4.6-2.6-8.8-6.8-10.8l-4.7-2.3l5.4-16.7c3.6,1.2,7.3,1.9,11,1.9c0.8,0,1.7,0,2.5-0.1
		c14.4-1.1,25.9-11,29.5-24.3c1.1-2.2,1.4-4.7,1.2-7c0,0,0,0,0,0c0-0.6-0.1-1.2-0.3-1.7c-0.6-2.3-1.9-4.4-3.8-6.1
		c-2.3-2.1-5.3-3.2-8.4-3.2c-3.1,0-6.1,1.2-8.4,3.2c1.5-2.9,2.3-6.2,2.3-9.7v-10.6c0-12.1-9.9-22-22-22s-22,9.9-22,22V478
		c0,1.7,0.2,3.4,0.6,5l-1.6,2l-20.8,1.2c-10,0.6-19.1,4.9-25.1,11.9c-9.4,11-10.6,26.1-3.7,38.1c0.8,2.4,2.3,4.4,4.2,5.9
		c0.4,0.4,0.9,0.7,1.4,0.9c1.9,1.1,4,1.7,6.3,1.7c0,0,0.5,0,0.7,0c2.6-0.1,5-1.1,6.9-2.6l-3.7,7.4l-17.2,0.2c-0.2,0-0.5,0-0.7,0.1
		C1626.3,550.1,1623.3,553.3,1623.3,557.2z M1627,557.2c0-2.1,1.7-3.9,3.9-3.9h0l0,0l19.5-0.2l6-12.1l13.5-39.7l-8.6,0.5
		c-9.8,0.6-18,8.6-17.7,18.3c0,1,0.2,1.9,0.3,2.9c4.8-0.1,8.8,3.6,9.1,8.4c0.3,4.9-3.5,9.1-8.4,9.4c-2,0.1-3.9-0.4-5.4-1.5l-0.1,0.1
		c-0.1-0.1-0.1-0.1-0.2-0.2c-1.6-1.1-2.8-2.8-3.4-4.7c-5.9-10.2-5.7-23.7,3.1-34.1c5.6-6.6,13.9-10.2,22.5-10.6l21.1-1.2
		c0.4,0,0.8,0,1.2,0.1l4-4.8c-0.6-1.8-1-3.8-1-5.9v-10.6c0-10.1,8.2-18.3,18.3-18.3c10.1,0,18.3,8.2,18.3,18.3V478
		c0,10.1-8.2,18.3-18.3,18.3c-2.5,0-4.8-0.5-7-1.4l-0.7,0.8c3.3,3.3,5.1,7.8,5,12.5c7.2,4.5,16.9,3.9,22.9-2.4
		c0.7-0.7,1.3-1.5,1.8-2.3c-3.4-3.3-3.7-8.8-0.5-12.4c3.3-3.7,8.9-4,12.6-0.7c1.5,1.3,2.4,3.1,2.8,4.9l0.1,0c0,0.1,0,0.2,0,0.3
		c0.3,1.9,0,4-1,5.7c-3,11.3-12.7,20.8-26.3,21.9c-5.4,0.4-10.7-0.7-15.5-3l-7.7,23.5l7.5,3.7c2.9,1.4,4.7,4.3,4.7,7.5l0.2,18h6.5
		c2.1,0,3.9,1.7,3.9,3.9c0,2.1-1.7,3.9-3.9,3.9h-14.6c-2.1,0-3.9-1.7-3.9-3.9l0,0h0l-0.2-19.5l-18.1-8.9l-6.1-2.6l-7.2,14.5
		c-1.4,2.8-4.3,4.6-7.4,4.7l-18.1,0.3v6.5c0,2.1-1.7,3.9-3.9,3.9c-2.1,0-3.9-1.7-3.9-3.9V557.2z M1720.4,497.9c0.1,2,0.7,4,1.7,5.7
		c-2.5,2.6-6,4-9.7,4c-2.3,0-4.5-0.5-6.6-1.5c-0.2-2.1-0.7-4.1-1.5-6.1c0.2,0,0.3,0,0.5,0c6.5,0,12.3-2.8,16.3-7.3
		C1720.6,494.4,1720.3,496.1,1720.4,497.9z M1647.2,519.8c-0.1-7.4,6.2-13.8,14.2-14.2l3.2-0.2l-8.2,24
		C1655.4,524.7,1651.8,521,1647.2,519.8z"/>
</g>
<g id="_x33_">
	<path class="st0" d="M1269.2,494.1c-24.7,0-44.7,20-44.7,44.7c0,24.7,20,44.7,44.7,44.7c24.7,0,44.7-20,44.7-44.7
		C1313.8,514.1,1293.8,494.1,1269.2,494.1z M1282.8,531.9c4.5,4.5,6.8,10.4,6.8,16.2c0,5.8-2.2,11.8-6.8,16.3
		c-4.5,4.5-10.4,6.8-16.3,6.8c-5.8,0-11.8-2.3-16.2-6.8c-2-2-2-5.4,0-7.4c2-2,5.4-2,7.4,0c2.4,2.4,5.6,3.6,8.8,3.6
		c3.2,0,6.4-1.2,8.9-3.6c2.5-2.5,3.7-5.7,3.7-8.9c0-3.2-1.2-6.4-3.7-8.8c-2.4-2.5-5.6-3.6-8.8-3.7c-1.5,0.1-2.9-0.6-3.8-1.7
		c-0.1,0-0.1,0-0.1-0.1c-2.1-2-2.1-5.3-0.2-7.4l9.5-9.7h-15c-2.9,0-5.2-2.3-5.2-5.3c0-2.9,2.3-5.2,5.2-5.2h27.4c3,0,5.3,2.3,5.3,5.2
		c0,0.9-0.3,1.8-0.6,2.5c-0.3,0.5-0.6,0.9-0.9,1.3l-11.7,12.1C1278.7,528.5,1281,530,1282.8,531.9z"/>
</g>
<g id="txt3">
	<g>
		<path class="st0" d="M1335.9,549.1v-31.4c0-1.6,1.3-2.9,2.9-2.9c1.6,0,3,1.3,3,2.9v28.4h14.4c1.5,0,2.9,1.3,2.9,3
			c0,1.6-1.4,2.9-2.9,2.9H1339c-0.1,0-0.1,0-0.1,0c-0.1,0-0.1,0-0.1,0C1337.2,552,1335.9,550.7,1335.9,549.1z"/>
		<path class="st0" d="M1362.9,538.7c0.1-7.2,5.7-13.3,13-13.3c6.9,0,12.4,5.2,12.8,12.3c0,0.1,0,0.2,0,0.3s0,0.4-0.1,0.5
			c-0.2,1.3-1.3,2.1-2.8,2.1h-16.9c0.3,1.2,0.9,2.6,1.8,3.5c1.1,1.3,3.2,2.2,5.1,2.4c1.9,0.2,4.2-0.3,5.5-1.3c1.1-1.2,3.3-1,4-0.2
			c0.7,0.7,1.2,2.3,0,3.5c-2.6,2.4-5.7,3.5-9.5,3.5C1368.6,552,1362.9,546,1362.9,538.7z M1368.7,536.1h15.1
			c-0.5-2.1-3.2-5.3-7.9-5.6C1371.3,530.7,1369.1,533.9,1368.7,536.1z"/>
		<path class="st0" d="M1407,528.4c0,1.6-1.4,2.9-3,2.9h-1.3v14.8c1.6,0,2.9,1.3,2.9,3s-1.3,2.9-2.9,2.9c-3.2,0-5.9-2.7-5.9-5.9
			v-14.8h-1.5c-1.6,0-2.9-1.3-2.9-2.9c0-1.6,1.3-2.9,2.9-2.9h1.5v-7.7c0-1.6,1.3-2.9,3-2.9c1.6,0,2.9,1.3,2.9,2.9v7.7h1.3
			C1405.6,525.4,1407,526.7,1407,528.4z"/>
		<path class="st0" d="M1416.2,526.9c2.4-0.7,3.7-2.4,3.6-4.8c-1.5-0.4-3-1.6-3-3.6v-0.4c0-2,1.4-3.6,3.6-3.6c2.3,0,3.8,1.8,3.8,4.7
			v0.5c0,3.6-1,6.1-2.6,7.8c-1.4,1.4-3.5,2.3-5,2.3c-1.1,0-1.6-0.6-1.6-1.5C1415,527.6,1415.5,527.1,1416.2,526.9z"/>
		<path class="st0" d="M1426.2,544.4c1-1.3,2.8-1.4,4-0.4c1.4,1.2,3.8,2.4,5.9,2.3c1.4,0,2.8-0.5,3.6-1c0.7-0.6,1-1.2,1-1.6
			c0-0.3-0.1-0.4-0.2-0.5c-0.1-0.2-0.3-0.4-0.7-0.6c-0.7-0.5-2.3-1.1-4.3-1.5h-0.1c-1.6-0.3-3.2-0.7-4.6-1.4
			c-1.4-0.7-2.7-1.6-3.7-3.1c-0.6-1-0.9-2.1-0.9-3.4c0-2.4,1.4-4.5,3.1-5.9c1.9-1.3,4.1-2,6.5-2c3.7,0,6.3,1.8,8,2.9
			c1.3,0.9,1.6,2.6,0.9,3.9c-0.9,1.3-2.6,1.6-3.9,0.7c-1.7-1.1-3.2-2-4.9-2c-1.3,0-2.5,0.4-3.2,1c-0.7,0.5-0.9,1-0.9,1.2
			c0,0.2,0,0.3,0.1,0.4c0.1,0.1,0.2,0.3,0.6,0.5c0.7,0.5,2.1,1,3.9,1.3l0.1,0.1h0.1c1.8,0.3,3.4,0.8,4.9,1.5
			c1.4,0.6,2.9,1.6,3.8,3.1c0.6,1.1,1,2.3,1,3.5c0,2.6-1.4,4.8-3.4,6.2c-1.9,1.3-4.3,2.1-6.9,2.1c-4.1-0.1-7.3-2-9.5-3.7
			C1425.4,547.4,1425.2,545.6,1426.2,544.4z"/>
		<path class="st0" d="M1469.6,559.2v-20.3c0,0,0,0,0-0.1v-10.5c0-1.5,1.3-2.8,2.8-2.8c1.5,0,2.7,1,2.9,2.2c2-1.3,4.5-2.2,7.2-2.2
			c7.1,0,12.9,6.1,12.9,13.4c0,7.3-5.8,13.2-12.9,13.2c-2.7,0-5.2-0.8-7.1-2.2v9.4c0,1.5-1.3,2.9-3,2.9
			C1470.9,562,1469.6,560.6,1469.6,559.2z M1475.4,538.8c0,2.1,0.7,4.1,2.1,5.3c1.3,1.5,3.1,2.2,5.1,2.2c1.8,0,3.6-0.7,5-2.2
			c1.2-1.2,2.1-3.2,2.1-5.3c0-2.1-0.9-4-2.1-5.4c-1.4-1.4-3.2-2.2-5-2.2c-2,0-3.7,0.7-5.1,2.2
			C1476.1,534.8,1475.4,536.7,1475.4,538.8z"/>
		<path class="st0" d="M1506.9,514.8c1.6,0,3,1.3,3,2.9v31.4c0,1.6-1.3,2.9-3,2.9c-1.6,0-2.9-1.3-2.9-2.9v-31.4
			C1504,516.1,1505.3,514.8,1506.9,514.8z"/>
		<path class="st0" d="M1539.4,538.8v10.4c0,1.5-1.3,2.8-2.8,2.8c-1.4,0-2.4-1-2.8-2.3c-2,1.4-4.4,2.3-7.1,2.3c-3.6,0-6.8-1.5-9-3.9
			c-2.3-2.4-3.6-5.7-3.6-9.4c0-3.7,1.3-7,3.6-9.4c2.3-2.4,5.4-4,9-4c2.7,0,5.1,0.9,7.1,2.3c0.3-1.3,1.4-2.3,2.8-2.3
			c1.5,0,2.8,1.3,2.8,2.9V538.8z M1533.7,538.8c0-2.2-0.8-4.1-2.1-5.5c-1.3-1.4-3.1-2.2-4.9-2.2c-1.9,0-3.7,0.7-4.9,2.2
			c-1.3,1.3-2,3.2-2,5.5c0,2.2,0.7,4.1,2,5.5c1.2,1.3,3,2.1,4.9,2.1c1.9,0,3.7-0.7,4.9-2.1C1532.9,542.9,1533.7,541,1533.7,538.8z"
			/>
		<path class="st0" d="M1571.5,528.2v12.6v7.6c0,7.1-5.6,12.7-12.7,12.7c-1.9,0-3.9-0.5-5.5-1.3c-1.5-0.6-2-2.3-1.4-3.8
			c0.7-1.3,2.5-1.9,3.8-1.2c1,0.5,2,0.7,3.1,0.7c3.1-0.1,5.8-2.1,6.6-4.8c-1.5,0.9-3.3,1.3-5.1,1.3c-6.1,0-11.1-5.1-11.1-11.2v-12.6
			c0-1.6,1.3-2.8,2.8-2.8c1.6,0,2.8,1.2,2.8,2.8v12.6c0,3.1,2.5,5.4,5.5,5.4c3,0,5.5-2.3,5.5-5.4v-12.6c0-1.6,1.2-2.8,2.8-2.8
			C1570.2,525.4,1571.5,526.7,1571.5,528.2z"/>
		<path class="st0" d="M1598.7,539.2v-21.5c0-1.6,1.3-2.9,2.9-2.9c1.6,0,2.9,1.3,2.9,2.9v21.5c0,1.6-1.3,2.9-2.9,2.9
			C1600,542.1,1598.7,540.9,1598.7,539.2z M1601.6,552c-1.6,0-2.9-1.3-2.9-2.9V548c0-1.6,1.3-2.9,2.9-2.9c1.6,0,2.9,1.3,2.9,2.9v1.1
			C1604.5,550.8,1603.2,552,1601.6,552z"/>
	</g>
</g>
<g id="barre0">
	<path class="st0" d="M992.8,359c-4,0-7.2-3.3-7.2-7.1v-22.7c0-3.9,3.3-7.1,7.2-7.1c3.9,0,7.1,3.3,7.1,7.1v22.7
		C999.9,355.8,996.6,359,992.8,359z"/>
</g>
<g id="barre2">
	<g>
		<path class="st0" d="M992,760.1c-4,0-7.2-3.3-7.2-7.1v-22.7c0-3.9,3.3-7.1,7.2-7.1c3.9,0,7.1,3.3,7.1,7.1V753
			C999.1,756.8,995.8,760.1,992,760.1z"/>
	</g>
</g>
<g id="barre1">
	<g>
		<g>
			<path class="st0" d="M810.2,540.6c0,4-3.3,7.2-7.1,7.2h-22.7c-3.9,0-7.1-3.3-7.1-7.2c0-3.9,3.3-7.1,7.1-7.1h22.7
				C807,533.5,810.2,536.8,810.2,540.6z"/>
		</g>
	</g>
</g>
<g id="barre3">
	<g>
		<g>
			<path class="st0" d="M1211.3,541.4c0,4-3.3,7.2-7.1,7.2h-22.7c-3.9,0-7.1-3.3-7.1-7.2c0-3.9,3.3-7.1,7.1-7.1h22.7
				C1208,534.3,1211.3,537.6,1211.3,541.4z"/>
		</g>
	</g>
</g>
<g id="FYT">
	<g>
		<path class="st0" d="M916.3,579.6h-37.6c-2.7,0-4.8,2.1-4.8,4.8c0,2.7,2.2,4.9,4.8,4.9h13.9v47c0,2.7,2.2,4.8,4.8,4.8
			c2.7,0,4.8-2.1,4.8-4.8v-47h14c2.6,0,4.8-2.3,4.8-4.9C921.1,581.8,918.9,579.6,916.3,579.6z"/>
		<path class="st0" d="M973.6,589.4c2.6,0,4.8-2.3,4.8-4.9c0-2.6-2.2-4.8-4.8-4.8h-28.7c-2.8,0-4.9,2.1-4.9,4.8v51.9
			c0,2.5,2,4.7,4.5,4.8c0.1,0,0.3,0,0.4,0c0.1,0,0.2,0,0.3,0h28.4c2.6,0,4.8-2.2,4.8-4.8c0-2.7-2.2-4.9-4.8-4.9h-23.8v-16.2h20.5
			c2.7,0,4.8-2.2,4.8-4.9c0-2.6-2.2-4.8-4.8-4.8h-20.5v-16.1H973.6z"/>
		<path class="st0" d="M1021.9,582.8C1021.9,582.8,1021.9,582.7,1021.9,582.8c-0.8-1.9-2.7-3.2-4.5-3.1c-2.1-0.1-4,1.1-4.8,3.1
			l-19.4,51.8c-0.9,2.6,0.4,5.3,3,6.3c0.5,0.2,1,0.2,1.6,0.2c2,0,3.8-1.2,4.6-3.1l4.3-11.4h21.4l4.3,11.4c0.7,1.9,2.5,3.1,4.5,3.1
			c0.6,0,1.3-0.1,1.6-0.3c2.5-1,3.8-3.8,2.9-6.4L1021.9,582.8z M1024.4,617h-14.3l7.1-18.9L1024.4,617z"/>
		<path class="st0" d="M1105.8,579.6C1105.8,579.6,1105.8,579.6,1105.8,579.6C1105.8,579.6,1105.8,579.6,1105.8,579.6
			c-1.7,0-3.1,0.7-4.1,2l-17.5,24.3l-17.5-24.2c-1-1.5-2.7-2.1-3.9-2.1h-0.3c-2.6,0-4.8,2.2-4.8,4.8v51.9c0,2.6,2.2,4.8,4.8,4.8
			c2.7,0,4.9-2.2,4.9-4.8v-37l12.6,17.6c0.9,1.3,2.4,2,4,2h0.2c1.6,0,3-0.7,4-2l12.7-17.6v37c0,2.7,2.2,4.8,4.8,4.8
			c2.7,0,4.9-2.2,4.9-4.8v-51.9C1110.8,581.9,1108.6,579.7,1105.8,579.6z"/>
		<path class="st0" d="M894,542.2v22.4c0,2.5,2.1,4.6,4.6,4.6c2.6,0,4.6-2,4.6-4.6l0-22.4l17-23.3c1.4-2,1-4.8-1-6.3
			c-2-1.5-4.8-1.1-6.4,1L898.6,533l-14.2-19.4c-0.7-1-1.7-1.7-2.8-1.9c-1.2-0.2-2.5,0.1-3.5,0.8c-1,0.7-1.7,1.8-1.8,3
			c-0.2,1.2,0.2,2.4,0.9,3.3L894,542.2z"/>
		<path class="st0" d="M974.9,519.4c-5-5.6-12.4-8.9-19.8-8.9c-7.7,0-15.1,3.2-20.3,8.9c-5.3,5.7-8.2,13.1-8.2,21
			c0,8,2.9,15.5,8.2,21c5.3,5.7,12.7,8.9,20.4,8.9c7.4,0,14.8-3.3,19.8-8.9c5.4-5.7,8.4-13.2,8.4-21
			C983.3,532.7,980.3,525.2,974.9,519.4L974.9,519.4z M968.1,554.9c-3.6,3.8-8.2,6-13.1,6c-5.1,0-9.9-2.1-13.5-6
			c-3.6-3.7-5.6-8.9-5.6-14.4c0-5.5,2.1-10.8,5.7-14.5c3.6-3.8,8.2-5.9,13.4-5.9c4.9,0,9.6,2.1,13.1,5.9c3.6,3.9,5.6,9.2,5.6,14.5
			C973.8,545.9,971.8,551.1,968.1,554.9C968.2,554.9,968.2,554.9,968.1,554.9z"/>
		<path class="st0" d="M1043.6,511.4c-2.6,0-4.7,2-4.7,4.6v29.6c0,8.1-6.6,14.8-14.8,14.8s-14.8-6.6-14.8-14.8v-29.6
			c0-2.5-2.1-4.6-4.6-4.6c-2.6,0-4.6,2-4.6,4.6v29.6c0,13.2,10.8,24,24,24c13.2,0,24-10.8,24-24v-29.6
			C1048.1,513.4,1046.1,511.4,1043.6,511.4z"/>
		<path class="st0" d="M1105.8,529.2c0-9.8-8-17.9-17.8-17.9h-14.8c-2.7,0-4.7,2-4.7,4.6v49c0,2.5,2,4.6,4.6,4.6
			c2.6,0,4.7-2,4.7-4.6v-18h9.8c0.7,0.2,2.9,0.8,4.7,2c1.2,0.8,2.1,1.6,2.5,2.5c0.6,0.9,0.9,2,0.9,3.4c0,4.5,0.5,7.6,1.8,10.2
			c0.7,1.2,1.6,2.2,2.6,2.8c1.3,0.8,2.6,0.9,3.3,0.9c0.9,0,1.6-0.2,2-0.3c2.3-0.8,3.6-3.4,2.8-5.8c-0.5-1.4-1.5-2.4-2.9-2.8
			c-0.3-1.4-0.4-3-0.3-5c0-3.2-0.9-6.3-2.7-8.9c-0.8-1.2-1.7-2.2-2.9-3.1C1103.5,539.4,1105.8,534.5,1105.8,529.2z M1096.5,529.2
			c0,4.7-3.8,8.5-8.6,8.5h-10.2v-17.1h10.2C1092.7,520.6,1096.5,524.5,1096.5,529.2z"/>
		<path class="st0" d="M956.9,501.3c2.6,0,4.7-2,4.7-4.6v-49c0-2.5-2.1-4.6-4.7-4.6c-2.6,0-4.6,2-4.6,4.6v49
			C952.3,499.3,954.4,501.3,956.9,501.3z"/>
		<path class="st0" d="M1002.1,448.2v48.2c0,2.5,2,4.6,4.6,4.6c2.4,0,4.5-2.1,4.5-4.6V462l26.6,36.9c0.1,0.2,0.3,0.4,0.5,0.6
			c0.9,1,2.1,1.6,3.3,1.6c2.5,0,4.6-2.1,4.6-4.6v-48.2c0-2.4-2.1-4.5-4.6-4.5c-2.4,0-4.5,2.1-4.5,4.5v34.2l-26.8-37.1
			c-1.4-2-4.2-2.4-6.4-1c-1.2,0.9-1.9,2.3-1.8,3.7L1002.1,448.2z"/>
		<path class="st0" d="M1072,499.2h9.8c16,0,29-13.1,29-29.1c0-16-13-29-29-29h-9.8c-2.6,0-4.6,2-4.6,4.6v49
			C1067.4,497.1,1069.5,499.2,1072,499.2z M1076.6,489.9v-39.7h5.1c10.9,0,19.8,8.9,19.8,19.8c0,11.1-8.7,19.8-19.8,19.9H1076.6z"/>
		<path class="st0" d="M886.7,501.3c2.6,0,4.6-2,4.6-4.6v-19.9h19.3c2.5,0,4.6-2.1,4.6-4.6c0-2.4-2.1-4.6-4.6-4.6h-19.3v-15.2h22.5
			c2.5,0,4.6-2.1,4.6-4.7c0-2.4-2.1-4.6-4.6-4.6h-27.1c-2.6,0-4.7,2-4.7,4.6v49C882.2,499.2,884.2,501.3,886.7,501.3z"/>
	</g>
</g>
<g id="arrows">
	<g>
		<g>
			<g>
				<path class="st0" d="M851.8,561c2.1,2.2,2.1,5.4,0,7.5c-1.1,1-2.3,1.5-3.7,1.5c-1.4,0-2.7-0.5-3.8-1.5c0,0-21.7-22-23.3-23.7
					c-1.6-1.6-1.6-3.7-1.6-3.7s0-2.1,1.6-3.7l23.3-23.7c2.1-2,5.5-2,7.5,0c2.1,2.1,2.1,5.4,0,7.5l-19.7,19.8L851.8,561z"/>
			</g>
		</g>
		<g>
			<g>
				<path class="st0" d="M1152.5,541.1l-19.7-19.8c-2.1-2.1-2.1-5.4,0-7.5c2-2,5.4-2,7.5,0l23.3,23.7c1.6,1.6,1.6,3.7,1.6,3.7
					s0,2-1.6,3.7c-1.6,1.6-23.3,23.7-23.3,23.7c-1.1,1-2.4,1.5-3.8,1.5c-1.3,0-2.6-0.5-3.7-1.5c-2.1-2.1-2.1-5.3,0-7.5L1152.5,541.1
					z"/>
			</g>
		</g>
		<g>
			<g>
				<path class="st0" d="M1012.2,681.6c2.2-2.1,5.4-2.1,7.5,0c1,1.1,1.5,2.3,1.5,3.7c0,1.4-0.5,2.7-1.5,3.8c0,0-22,21.7-23.7,23.3
					c-1.6,1.6-3.7,1.6-3.7,1.6s-2.1,0-3.7-1.6L965,689.1c-2-2.1-2-5.5,0-7.5c2.1-2.1,5.4-2.1,7.5,0l19.8,19.7L1012.2,681.6z"/>
			</g>
		</g>
		<g>
			<g>
				<path class="st0" d="M992.3,380.9l-19.8,19.7c-2.1,2.1-5.4,2.1-7.5,0c-2-2-2-5.4,0-7.5l23.7-23.3c1.6-1.6,3.7-1.6,3.7-1.6
					s2,0,3.7,1.6c1.6,1.6,23.7,23.3,23.7,23.3c1,1.1,1.5,2.4,1.5,3.8c0,1.3-0.5,2.6-1.5,3.7c-2.1,2.1-5.3,2.1-7.5,0L992.3,380.9z"/>
			</g>
		</g>
	</g>
</g>
</svg>
