<svg xmlns="http://www.w3.org/2000/svg" viewBox="0 0 1665.58 866.13">
  <defs>
    <style>
      .cls-1{fill:#fff;}
    </style>
  </defs>
  <title>
    animation
  </title>
  <g id="n0">
    <path class="cls-1" d="M659.2 130.6V99.2a3 3 0 0 1 3-3 3 3 0 0 1 3 3v28.4h14.4a3 3 0 0 1 0 6h-17.4a3 3 0 0 1-3-3zM686 108.3c2.3-.7 3.6-2.4 3.5-4.8a3.8 3.8 0 0 1-3-3.5v-.4A3.5 3.5 0 0 1 690 96c2.5 0 4 1.8 4 4.7v.5c0 3.6-1 6-2.6 7.8a7.8 7.8 0 0 1-5 2.3 1.4 1.4 0 0 1-1.7-1.5 1.5 1.5 0 0 1 1.2-1.5zM694.5 120.2a13.2 13.2 0 0 1 13-13.3 12.7 12.7 0 0 1 12.8 12.2v.3a1.5 1.5 0 0 1 0 .5 2.6 2.6 0 0 1-2.8 2h-17a7 7 0 0 0 1.8 3.6 8.2 8.2 0 0 0 5 2.4 8.7 8.7 0 0 0 5.7-1.3 3 3 0 0 1 4-.2 2.4 2.4 0 0 1 0 3.5 13.4 13.4 0 0 1-9.5 3.5 13.2 13.2 0 0 1-13-13.3zm5.8-2.6h15c-.5-2-3.2-5.3-8-5.6a7.4 7.4 0 0 0-7 5.6zM727.4 126a2.8 2.8 0 0 1 4-.5 9.8 9.8 0 0 0 6 2.3 7 7 0 0 0 3.5-1 2.2 2.2 0 0 0 1-1.6.8.8 0 0 0-.3-.5c0-.2-.2-.4-.6-.7a12.3 12.3 0 0 0-4.2-1.5 20.4 20.4 0 0 1-4.7-1.3 9 9 0 0 1-3.5-3 6.5 6.5 0 0 1-1-3.5 7.5 7.5 0 0 1 3.2-5.8 11.4 11.4 0 0 1 6.5-2 13.7 13.7 0 0 1 8 2.8 3 3 0 0 1 1 4 2.8 2.8 0 0 1-4 .7c-1.8-1-3.3-2-5-2a5.4 5.4 0 0 0-3 1 1.6 1.6 0 0 0-1 1.2.6.6 0 0 0 0 .4 1.4 1.4 0 0 0 .7.7 10.8 10.8 0 0 0 3.8 1.3 19 19 0 0 1 5 1.5 8.3 8.3 0 0 1 3.8 3.2 7 7 0 0 1 1 3.5 7.7 7.7 0 0 1-3.3 6.2 12 12 0 0 1-7 2 15.4 15.4 0 0 1-9.4-3.6 2.8 2.8 0 0 1-.6-4zM755 140.7v-31a2.8 2.8 0 0 1 2.7-2.7 3 3 0 0 1 3 2 13.5 13.5 0 0 1 7.2-2c7 0 12.7 6 12.7 13.3a13 13 0 0 1-12.8 13.2 12.3 12.3 0 0 1-7.3-2.2v9.4a3 3 0 0 1-3 2.8 3 3 0 0 1-2.8-2.8zm5.7-20.4a7 7 0 0 0 2 5.3 6.6 6.6 0 0 0 5.2 2.3 6.8 6.8 0 0 0 5-2.4 7.8 7.8 0 0 0 2-5.3 8.2 8.2 0 0 0-2-5.4 7 7 0 0 0-5-2.2 6.7 6.7 0 0 0-5.2 2 7.5 7.5 0 0 0-2 5.5zM806.4 109.7a2.8 2.8 0 0 1-2.8 2.8 5 5 0 0 0-3.2 1 8 8 0 0 0-2.5 2.6 16.3 16.3 0 0 0-2.3 4.6v10a3 3 0 0 1-3 3 2.8 2.8 0 0 1-2.7-3v-21a2.8 2.8 0 0 1 2.8-2.7 3 3 0 0 1 3 2.7v.3a7 7 0 0 1 1-1 11.7 11.7 0 0 1 6.8-2 2.8 2.8 0 0 1 2.8 2.7zM819 100.3a3 3 0 0 1-2.7 3 3 3 0 0 1-3-3V99a3 3 0 0 1 3-2.7A2.8 2.8 0 0 1 819 99zm0 9.6v20.7a2.8 2.8 0 0 1-2.7 2.8 3 3 0 0 1-3-2.8V110a2.8 2.8 0 0 1 3-3 2.8 2.8 0 0 1 2.8 3zM840.3 109.8a3 3 0 0 1-3 3H836v14.8a3 3 0 0 1 3 3 3 3 0 0 1-3 3 6 6 0 0 1-6-6v-14.8h-1.5a3 3 0 0 1-3-3 3 3 0 0 1 3-3h1.5v-7.6a3 3 0 0 1 3-3 3 3 0 0 1 3 3v7.7h1.3a3 3 0 0 1 3 2.8zM889.6 130.7a3 3 0 0 1-2.8 2.8 3 3 0 0 1-3-2.2 13 13 0 0 1-7 2.2 13.3 13.3 0 0 1 0-26.6 12.6 12.6 0 0 1 7 2.2v-10a3 3 0 0 1 5.8 0v31.5zm-13-18a7 7 0 0 0-5 2.2 7.7 7.7 0 0 0 0 10.5 7 7 0 0 0 5 2.2 6.8 6.8 0 0 0 5-2.2 7.7 7.7 0 0 0 0-10.6 6.8 6.8 0 0 0-5-2.3zM900 108.3c2.5-.7 3.7-2.4 3.6-4.8a3.8 3.8 0 0 1-3-3.5v-.4a3.5 3.5 0 0 1 3.6-3.6c2.4 0 4 1.8 4 4.7v.5c0 3.6-1 6-2.7 7.8a7.8 7.8 0 0 1-5 2.3 1.4 1.4 0 0 1-1.7-1.5 1.5 1.5 0 0 1 1.2-1.5zM911 120.2a13.2 13.2 0 0 1 13-13.3 12.7 12.7 0 0 1 12.8 12.2v.3a1.5 1.5 0 0 1 0 .5 2.6 2.6 0 0 1-2.8 2h-17a7 7 0 0 0 2 3.6 8.2 8.2 0 0 0 5 2.4 8.7 8.7 0 0 0 5.5-1.3 3 3 0 0 1 4-.2 2.4 2.4 0 0 1 0 3.5 13.4 13.4 0 0 1-9.5 3.5 13.2 13.2 0 0 1-13-13.3zm5.8-2.6h15c-.5-2-3.2-5.3-7.8-5.6a7.4 7.4 0 0 0-7.2 5.6zm8.4-15.5a2.4 2.4 0 0 1 .4-1l3-4.8a3 3 0 0 1 2.6-1.5c1.7 0 3.8 1 3.8 2a2.3 2.3 0 0 1-1 1.6l-3.4 3.4a5 5 0 0 1-3.8 1.5c-1 0-1.6-.4-1.6-1zM963.6 140.7v-9.4a12.6 12.6 0 0 1-7.2 2.2 13.3 13.3 0 0 1 0-26.6 13.4 13.4 0 0 1 7.3 2 2.8 2.8 0 0 1 2.8-2 3 3 0 0 1 3 2.8v31a3 3 0 0 1-6 0zm-7.2-28a7 7 0 0 0-5 2.3 7.6 7.6 0 0 0 0 10.6 6.7 6.7 0 0 0 5 2.2 6.3 6.3 0 0 0 5-2.2 7.6 7.6 0 0 0 0-10.6 6.5 6.5 0 0 0-5-2.3zM991 133.5a11 11 0 0 1-11-11v-12.8a3 3 0 0 1 2.7-2.8 2.8 2.8 0 0 1 2.8 2.7v12.7a5.4 5.4 0 0 0 5.4 5.5 5.5 5.5 0 0 0 5.5-5.6v-12.7a2.8 2.8 0 0 1 2.8-2.8 3 3 0 0 1 3 2.7v12.7a11.2 11.2 0 0 1-11.4 11zM1018.8 100.3a3 3 0 0 1-3 3 3 3 0 0 1-2.8-3V99a3 3 0 0 1 3-2.7 2.8 2.8 0 0 1 2.8 2.8zm0 9.6v20.7a2.8 2.8 0 0 1-3 2.8 3 3 0 0 1-2.8-2.8V110a2.8 2.8 0 0 1 3-3 2.8 2.8 0 0 1 2.8 3zM1028 140.7v-31a2.8 2.8 0 0 1 2.8-2.7 3 3 0 0 1 3 2 13.5 13.5 0 0 1 7-2c7.2 0 13 6 13 13.3a13 13 0 0 1-13 13.2 12.3 12.3 0 0 1-7-2.2v9.4a3 3 0 0 1-3 2.8 3 3 0 0 1-3-2.8zm5.8-20.4a7 7 0 0 0 2 5.3 6.6 6.6 0 0 0 5 2.3 6.8 6.8 0 0 0 5-2.4 7.8 7.8 0 0 0 2.2-5.3 8.2 8.2 0 0 0-2-5.4 7 7 0 0 0-5-2.2 6.7 6.7 0 0 0-5.2 2 7.5 7.5 0 0 0-2 5.5zM1060.6 120.2a13.2 13.2 0 0 1 13-13.3 12.7 12.7 0 0 1 13 12.2v.3a1.5 1.5 0 0 1-.2.5 2.6 2.6 0 0 1-2.8 2h-17a7 7 0 0 0 2 3.6 8.2 8.2 0 0 0 5 2.4 8.7 8.7 0 0 0 5.6-1.3 3 3 0 0 1 4-.2 2.4 2.4 0 0 1 0 3.5 13.4 13.4 0 0 1-9.6 3.5 13.2 13.2 0 0 1-13-13.3zm5.8-2.6h15c-.4-2-3.2-5.3-7.8-5.6a7.4 7.4 0 0 0-7.2 5.6zM1109 120.2a13.2 13.2 0 0 1 13-13.3 12.7 12.7 0 0 1 12.8 12.2v.3a1.5 1.5 0 0 1 0 .5 2.6 2.6 0 0 1-2.8 2h-17a7 7 0 0 0 1.8 3.6 8.2 8.2 0 0 0 5 2.4 8.7 8.7 0 0 0 5.7-1.3 3 3 0 0 1 4-.2 2.4 2.4 0 0 1 0 3.5 13.4 13.4 0 0 1-9.6 3.5 13.2 13.2 0 0 1-13-13.3zm5.8-2.6h15c-.5-2-3.2-5.3-7.8-5.6a7.4 7.4 0 0 0-7.2 5.6zM1165.4 118v12.7a2.8 2.8 0 0 1-2.7 2.8 3 3 0 0 1-3-2.8V118a5.5 5.5 0 0 0-5.4-5.4 5.3 5.3 0 0 0-5.3 5.4v12.7a1 1 0 0 1 0 .5 3 3 0 0 1-3 2.3 2.8 2.8 0 0 1-2.8-2.8v-21a2.8 2.8 0 0 1 3-2.8 3 3 0 0 1 2.5 1.5 10.6 10.6 0 0 1 5.6-1.6 11 11 0 0 1 11 11zM744 197.4V188a12.6 12.6 0 0 1-7 2.2 13.3 13.3 0 0 1 0-26.6 13.4 13.4 0 0 1 7.2 2.3 2.8 2.8 0 0 1 2.8-2.3 3 3 0 0 1 3 2.8v31a3 3 0 0 1-6 0zm-7-28a7 7 0 0 0-5 2.3 7.6 7.6 0 0 0 0 10.6 6.7 6.7 0 0 0 5 2.2 6.3 6.3 0 0 0 5-2.2 7.6 7.6 0 0 0 0-10.6 6.5 6.5 0 0 0-5-2.3zM771.4 190.2a11 11 0 0 1-11-11v-12.7a3 3 0 0 1 2.8-3 2.8 2.8 0 0 1 2.8 3v12.7a5.4 5.4 0 0 0 5.4 5.4 5.5 5.5 0 0 0 5.6-5.4v-12.7a2.8 2.8 0 0 1 2.8-3 3 3 0 0 1 3 3v12.7a11.2 11.2 0 0 1-11.4 11zM791.6 177a13.2 13.2 0 0 1 13-13.4 12.7 12.7 0 0 1 13 12.4v.2a1.5 1.5 0 0 1-.2.5 2.6 2.6 0 0 1-2.8 2.2h-17a7 7 0 0 0 2 3.4 8.2 8.2 0 0 0 5 2.4 8.7 8.7 0 0 0 5.6-1.4 3 3 0 0 1 4 0 2.4 2.4 0 0 1 0 3.3 13.4 13.4 0 0 1-9.6 3.5 13.2 13.2 0 0 1-13-13.3zm5.8-2.7h15c-.4-2-3.2-5.2-7.8-5.6a7.4 7.4 0 0 0-7.2 5.6zM829.2 153a3 3 0 0 1 3 3v31.3a3 3 0 0 1-6 0V156a3 3 0 0 1 3-3zM857.4 197.4V188a12.6 12.6 0 0 1-7 2.2 13.3 13.3 0 0 1 0-26.6 13.4 13.4 0 0 1 7 2.3 2.8 2.8 0 0 1 3-2.4 3 3 0 0 1 2.8 3v30.8a3 3 0 0 1-5.8 0zm-7-28a7 7 0 0 0-5 2.3 7.6 7.6 0 0 0 0 10.6 6.7 6.7 0 0 0 5 2.2 6.3 6.3 0 0 0 5-2.2 7.6 7.6 0 0 0 0-10.6 6.5 6.5 0 0 0-5-2.3zM884.8 190.2a11 11 0 0 1-11-11v-12.7a3 3 0 0 1 2.7-3 2.8 2.8 0 0 1 3 3v12.7a5.4 5.4 0 0 0 5.3 5.4 5.5 5.5 0 0 0 5.6-5.4v-12.7a2.8 2.8 0 0 1 2.7-3 3 3 0 0 1 3 3v12.7a11.2 11.2 0 0 1-11.2 11zM905 177a13.2 13.2 0 0 1 13-13.3 12.7 12.7 0 0 1 12.8 12.3v.3a1.5 1.5 0 0 1 0 .5 2.6 2.6 0 0 1-2.8 2h-17a7 7 0 0 0 2 3.6 8.2 8.2 0 0 0 5 2.4 8.7 8.7 0 0 0 5.5-1.3 3 3 0 0 1 4-.2 2.4 2.4 0 0 1 0 3.5 13.4 13.4 0 0 1-9.5 3.5 13.2 13.2 0 0 1-13-13.4zm5.8-2.7h15c-.5-2-3.2-5.2-7.8-5.6a7.4 7.4 0 0 0-7.2 5.6zM938 182.7a2.8 2.8 0 0 1 4-.5 9.8 9.8 0 0 0 6 2.4 7 7 0 0 0 3.5-1 2.2 2.2 0 0 0 1-1.6.8.8 0 0 0-.2-.5c0-.2-.2-.4-.7-.7a12.3 12.3 0 0 0-4.2-1.5 20.4 20.4 0 0 1-4.7-1.4 9 9 0 0 1-3.7-3 6.5 6.5 0 0 1-1-3.5 7.5 7.5 0 0 1 3.3-5.8 11.4 11.4 0 0 1 6.5-2 13.7 13.7 0 0 1 8 3 3 3 0 0 1 1 3.8 2.8 2.8 0 0 1-4 .8c-1.8-1-3.3-2-5-2a5.4 5.4 0 0 0-3.2 1 1.6 1.6 0 0 0-.8 1.2.6.6 0 0 0 0 .4 1.4 1.4 0 0 0 .7.5 10.8 10.8 0 0 0 4 1.2 19 19 0 0 1 5 1.6 8.3 8.3 0 0 1 3.7 3.2 7 7 0 0 1 1 3.5 7.7 7.7 0 0 1-3.4 6 12 12 0 0 1-7 2.3 15.4 15.4 0 0 1-9.3-3.7 2.8 2.8 0 0 1-.5-4zM979.5 177a13.5 13.5 0 0 1 13.5-13.3 14 14 0 0 1 8.5 3 3 3 0 0 1 .6 3.8 2.8 2.8 0 0 1-4 .6 8.5 8.5 0 0 0-5-1.6 7.6 7.6 0 1 0 0 15.2 8.6 8.6 0 0 0 5-1.7 3 3 0 0 1 4 .5 3 3 0 0 1-.5 4 14.7 14.7 0 0 1-8.5 2.8 13.5 13.5 0 0 1-13.5-13.3zM1015 153a3 3 0 0 1 3 3v31.3a3 3 0 0 1-6 0V156a3 3 0 0 1 3-3zM1030.8 157a3 3 0 0 1-3 3 3 3 0 0 1-2.7-3v-1a3 3 0 0 1 3-3 2.8 2.8 0 0 1 2.8 3zm0 9.6v20.8a2.8 2.8 0 0 1-3 2.8 3 3 0 0 1-2.7-2.8v-20.7a2.8 2.8 0 0 1 3-3 2.8 2.8 0 0 1 2.8 3zM1038 177a13.5 13.5 0 0 1 13.6-13.3 14 14 0 0 1 8.5 3 3 3 0 0 1 .6 3.8 2.8 2.8 0 0 1-4 .6 8.5 8.5 0 0 0-5-1.6 7.6 7.6 0 1 0 0 15.2 8.6 8.6 0 0 0 5-1.7 3 3 0 0 1 4 .5 3 3 0 0 1-.5 4 14.7 14.7 0 0 1-8.4 2.8A13.5 13.5 0 0 1 1038 177zM1069 182.7a2.8 2.8 0 0 1 4-.5 9.8 9.8 0 0 0 6 2.4 7 7 0 0 0 3.5-1 2.2 2.2 0 0 0 1-1.6.8.8 0 0 0-.2-.5c0-.2-.3-.4-.7-.7a12.3 12.3 0 0 0-4.2-1.5 20.4 20.4 0 0 1-4.7-1.4 9 9 0 0 1-3.7-3 6.5 6.5 0 0 1-1-3.5 7.5 7.5 0 0 1 3.3-5.8 11.4 11.4 0 0 1 6.5-2 13.7 13.7 0 0 1 8 3 3 3 0 0 1 .8 3.8 2.8 2.8 0 0 1-4 .8c-1.6-1-3-2-4.8-2a5.4 5.4 0 0 0-3.2 1 1.6 1.6 0 0 0-.8 1.2.6.6 0 0 0 0 .4 1.4 1.4 0 0 0 .7.5 10.8 10.8 0 0 0 4 1.2 19 19 0 0 1 5 1.6 8.3 8.3 0 0 1 3.7 3.2 7 7 0 0 1 1 3.5 7.7 7.7 0 0 1-3.4 6 12 12 0 0 1-7 2.3 15.4 15.4 0 0 1-9.4-3.7 2.8 2.8 0 0 1-.4-4zM1099.8 182.7a4 4 0 0 1 4 4 4 4 0 0 1-4 4 4 4 0 0 1-4-4 4 4 0 0 1 4-4z"/>
  </g>
  <path class="cls-1" d="M854.7 77.6l-.6-11.3c-5-.6-7-4.5-7-9a12.6 12.6 0 0 1 6.7-12.3c3.6-2 7.7-3 12-4.6-5.7-7.7-6.5-16.8-2.8-26A22 22 0 0 1 876 1.7c13-4.7 28.3 0 34 16 7-19.2 26.3-21 37.7-14 6.4 4 10 9.8 11.5 17.5S958 35.3 954 42c3.4.8 6.6 1.5 9.7 2.4 5.3 1.5 9 4.7 9.7 10.4 1 6-1.6 10-7 11.7v11zm58.8-4.6c-2-10.8-6-19.5-15.7-24.8-3.7-2-3.6-3.5-.2-6 6-4.8 9.2-10.7 8.6-18.7-.6-7.4-4.4-12.5-10.4-16a18.5 18.5 0 0 0-19.6-.4c-14.2 8.3-14.6 26.3-1.5 35.4 3 2 2.7 3.3-.3 5.4a50 50 0 0 0-8.2 7c-4.6 5-7 11.2-7.8 18 4 1.2 6.6.6 8-4 .5-2 2-4 3.2-6l1 .5-.4 9.7zm37 0V62.7l.8-.3 5.2 10.5h5.7c-1.8-10.8-6-19.4-15.6-24.8-3.7-2-3.7-3.5-.4-6 6.6-5.3 10.4-11.8 8.7-20.4-2.6-12.7-13.4-19-25.4-16.6C921 7 915.8 13.5 914.3 22c-1.5 7.8 1.5 14.7 8.3 19.6 1.4 1 2.3 2.5 3.3 3.7l-.5 1.3h-21.2C912.5 53 916.5 62.4 918 73zm-83.2-27.2c-4.8-1-9 1.4-12.5 4.2-2 1.4-2.5 5-2.6 8 0 1.4 2 3 3 4zm88.3 1.8c2.6 4.2 5.2 8 7.6 12.2 1 2 2 2.4 4 .8 2-1.8 2.4-3.7 1.4-6.2-2-4.4-7-7-13-6.8zm-50-6l10 .7L910 33z" id="ico0"/>
  <g id="ico1">
    <g id="_Groupe_" data-name="&lt;Groupe&gt;">
      <path class="cls-1" d="M108.8 468.7a13.6 13.6 0 0 1-9.6-4.2L76.5 442a12.8 12.8 0 0 1 18.2-18.3l11.8 12 19.3-32a12.8 12.8 0 1 1 22 13l-27.4 45.5c-3 4-7 6.5-11.6 6.5zM85.6 424a8.8 8.8 0 0 0-6.2 15l22.6 22.7a9.7 9.7 0 0 0 6.8 3c3.2 0 6-1.7 8.3-4.7l27.3-45.2a8.8 8.8 0 1 0-15-9l-22 36.2L92 426.5a8.8 8.8 0 0 0-6.4-2.5z" id="_Groupe_2" data-name="&lt;Groupe&gt;"/>
    </g>
    <path class="cls-1" d="M75 360.3h-6.5a22.3 22.3 0 0 0 8.3-17.4V332a22.3 22.3 0 1 0-44.7 0V343a22.3 22.3 0 0 0 8.4 17.3H34A33.8 33.8 0 0 0 3.4 409a12.8 12.8 0 0 0 4 6.3 3.7 3.7 0 0 0 1.3 1 12.8 12.8 0 1 0 11-22.8 14.2 14.2 0 0 1 14-13.6v73.8H31a7.7 7.7 0 0 0 0 15.2h18.7a3.7 3.7 0 0 0 3.8-3.7v-36.6h2v36.6A3.7 3.7 0 0 0 59 469H78a7.7 7.7 0 0 0 0-15.2h-3v-74a14.2 14.2 0 0 1 14.2 13.7 12.8 12.8 0 1 0 11 23 3.7 3.7 0 0 0 1.3-1.2 12.8 12.8 0 0 0 4-6.2A33.8 33.8 0 0 0 75 360.3zm27 47.5a9 9 0 0 1-3.3 5v.2h-.2a9 9 0 1 1-5.8-16.3 18.3 18.3 0 0 0 .2-2.6 18 18 0 0 0-18-17.8h-3.6v81.3H78a4 4 0 0 1 0 7.8H59V425h-9.5v40.3H31a4 4 0 1 1 0-7.8h6.5v-81.3H34a18 18 0 0 0-18 18 18.3 18.3 0 0 0 0 2.5 9 9 0 1 1-5.6 16.2l-.2-.3a9 9 0 0 1-3.2-5A30 30 0 0 1 34 364h12.8v-4.2a18.6 18.6 0 0 1-11-17v-10.6a18.6 18.6 0 0 1 37.2 0V343a18.6 18.6 0 0 1-11 16.8v4.2h13a30 30 0 0 1 27 43.8z"/>
  </g>
  <path class="cls-1" d="M640.5 385.5a44.7 44.7 0 1 0 44.6 44.7 44.7 44.7 0 0 0-44.5-44.7zm7.3 16v57.4a5.4 5.4 0 0 1-5.4 5.3 5.3 5.3 0 0 1-5.4-5.4v-48l-4 2.2a5 5 0 0 1-2.6.8 5.5 5.5 0 0 1-2.8-10l12-7c0-.2.2-.2.3-.3l.4-.3h.6a.6.6 0 0 1 .4-.2 1.7 1.7 0 0 1 .7 0h1.2a.6.6 0 0 0 .3 0 1 1 0 0 1 .6.2.6.6 0 0 1 .5 0c.3.3.4.4.6.4a1.3 1.3 0 0 0 .5.3c0 .2.3.3.4.4l.3.4a1.3 1.3 0 0 1 .3.3l.3.5v.5l.3.5.3.5a4.2 4.2 0 0 0 0 .5.8.8 0 0 0 .2.7z" id="n1"/>
  <g id="txt1">
    <path class="cls-1" d="M175 433.7a19.5 19.5 0 0 1 19.4-19 20 20 0 0 1 12.3 4 3 3 0 0 1-3.7 5 13.3 13.3 0 0 0-8.6-3 14 14 0 0 0-9.5 3.8 13 13 0 0 0-4 9.2 13 13 0 0 0 4 9.3 14 14 0 0 0 9.4 3.8 13.4 13.4 0 0 0 8.6-3 3.2 3.2 0 0 1 4.3.7 3 3 0 0 1-.6 4.2 20 20 0 0 1-12.3 4.2 19.5 19.5 0 0 1-19.5-19.3zM233.4 429a2.8 2.8 0 0 1-3 3 5 5 0 0 0-3 1 8 8 0 0 0-2.5 2.5 16.3 16.3 0 0 0-2.3 4.5v10a3 3 0 0 1-3 3 2.8 2.8 0 0 1-2.7-3v-21a2.8 2.8 0 0 1 2.8-2.7 3 3 0 0 1 3 2.8v.4a7 7 0 0 1 1-1 11.7 11.7 0 0 1 6.7-2 2.8 2.8 0 0 1 3 2.7zM238.5 439.6a13.2 13.2 0 0 1 13-13.3 12.7 12.7 0 0 1 12.8 12.4v.2a1.5 1.5 0 0 1 0 .4 2.6 2.6 0 0 1-3 2h-16.8a7 7 0 0 0 1.8 3.7 8.2 8.2 0 0 0 5 2.4 8.7 8.7 0 0 0 5.7-1.3 3 3 0 0 1 4 0 2.4 2.4 0 0 1 0 3.4 13.4 13.4 0 0 1-9.5 3.5 13.2 13.2 0 0 1-13-13.4zm5.8-2.6h15c-.5-2.2-3.2-5.3-8-5.7a7.4 7.4 0 0 0-7 5.7zm8.4-15.6a2.4 2.4 0 0 1 .4-1l3-4.8a3 3 0 0 1 2.7-1.6c1.7 0 3.8 1 3.8 2a2.3 2.3 0 0 1-1 1.7L258 421a5 5 0 0 1-3.8 1.6c-.8 0-1.5-.5-1.5-1.2zM271 439.6a13.2 13.2 0 0 1 13-13.3 12.7 12.7 0 0 1 12.7 12.4v.2a1.5 1.5 0 0 1 0 .4 2.6 2.6 0 0 1-3 2H277a7 7 0 0 0 1.7 3.7 8.2 8.2 0 0 0 5.2 2.4 8.7 8.7 0 0 0 5.4-1.3 3 3 0 0 1 4 0 2.4 2.4 0 0 1 0 3.4 13.4 13.4 0 0 1-9.5 3.5 13.2 13.2 0 0 1-13-13.4zm5.7-2.6h15c-.5-2.2-3.2-5.3-7.8-5.7a7.4 7.4 0 0 0-7.3 5.7zM320.4 429a2.8 2.8 0 0 1-2.8 3 5 5 0 0 0-3.2 1 8 8 0 0 0-2.5 2.5 16.3 16.3 0 0 0-2.2 4.5v10a3 3 0 0 1-3 3 2.8 2.8 0 0 1-2.8-3v-21a2.8 2.8 0 0 1 2.8-2.7 3 3 0 0 1 3 2.8v.4a7 7 0 0 1 1-1 11.7 11.7 0 0 1 6.8-2 2.8 2.8 0 0 1 2.8 2.7zM355.3 429.2a3 3 0 0 1-3 3H351V447a3 3 0 0 1 3 3 3 3 0 0 1-3 3 6 6 0 0 1-6-6v-15h-1.4a3 3 0 0 1-3-2.8 3 3 0 0 1 3-3h1.5v-7.6a3 3 0 0 1 3-3 3 3 0 0 1 3 3v7.7h1.3a3 3 0 0 1 3 3zM366.2 449a13.3 13.3 0 0 1-3.6-9.4 13.7 13.7 0 0 1 3.6-9.3 12.4 12.4 0 0 1 9.2-4 11.8 11.8 0 0 1 9 4 13.3 13.3 0 0 1 3.6 9.4 13 13 0 0 1-3.7 9.3 11.8 11.8 0 0 1-9 4 12.4 12.4 0 0 1-9-4zm2.2-9.4a8.6 8.6 0 0 0 2 5.7 7.2 7.2 0 0 0 5 2 7 7 0 0 0 5-2 8.2 8.2 0 0 0 2-5.7 8 8 0 0 0-2-5.5 7.5 7.5 0 0 0-5-2 7.7 7.7 0 0 0-5 2 8.4 8.4 0 0 0-2 5.7zM419.2 437.3V450a2.8 2.8 0 0 1-2.8 3 3 3 0 0 1-2.8-3v-12.7a5.5 5.5 0 0 0-5.5-5.3 5.3 5.3 0 0 0-5.2 5.3V450a1 1 0 0 1 0 .6 3 3 0 0 1-3 2.3 2.8 2.8 0 0 1-2.8-3v-21a2.8 2.8 0 0 1 3-2.8 3 3 0 0 1 2.5 1.7 10.6 10.6 0 0 1 5.6-1.8 11 11 0 0 1 11.2 11.2zM445.6 460v-31a2.8 2.8 0 0 1 2.8-2.7 3 3 0 0 1 3 2.2 13.5 13.5 0 0 1 7.2-2.2c7 0 13 6 13 13.3a13 13 0 0 1-13 13.2 12.3 12.3 0 0 1-7-2v9.2a3 3 0 0 1-3 3 3 3 0 0 1-3-3zm6-20.3a7 7 0 0 0 2 5.3 6.6 6.6 0 0 0 5 2.2 6.8 6.8 0 0 0 5-2.2 7.8 7.8 0 0 0 2-5.3 8.2 8.2 0 0 0-2-5.4 7 7 0 0 0-5-2.2 6.7 6.7 0 0 0-5 2.3 7.5 7.5 0 0 0-2 5.4zM497 429a2.8 2.8 0 0 1-2.7 3 5 5 0 0 0-3.2 1 8 8 0 0 0-2.4 2.5 16.3 16.3 0 0 0-2 4.5v10a3 3 0 0 1-3 3 2.8 2.8 0 0 1-3-3v-21a2.8 2.8 0 0 1 3-2.7 3 3 0 0 1 3 2.8v.4a7 7 0 0 1 1-1 11.7 11.7 0 0 1 6.7-2 2.8 2.8 0 0 1 2.8 2.7zM505.2 449a13.3 13.3 0 0 1-3.7-9.3 13.7 13.7 0 0 1 3.7-9.3 12.4 12.4 0 0 1 9-4 11.8 11.8 0 0 1 9 4 13.3 13.3 0 0 1 3.7 9.3 13 13 0 0 1-3.8 9.3 11.8 11.8 0 0 1-9 4 12.4 12.4 0 0 1-9-4zm2-9.3a8.6 8.6 0 0 0 2 5.6 7.2 7.2 0 0 0 5 2 7 7 0 0 0 5-2 8.2 8.2 0 0 0 2-5.6 8 8 0 0 0-2-5.6 7.5 7.5 0 0 0-5-2 7.7 7.7 0 0 0-5 2 8.4 8.4 0 0 0-2 5.7zM543 424.5v.8h1.5a3 3 0 0 1 3 3 3 3 0 0 1-3 2.8H543v19a3 3 0 0 1-6 0v-19h-1.4a3 3 0 0 1-3-2.8 3 3 0 0 1 3-3h1.4v-.7a11 11 0 0 1 1-5.2 6.3 6.3 0 0 1 3.8-3.3 10.7 10.7 0 0 1 3.2-.4 3 3 0 0 1 0 6 3.8 3.8 0 0 0-1.3 0 .6.6 0 0 0-.4.2s-.4.8-.4 2.7zM559.2 419.7a3 3 0 0 1-3 3 3 3 0 0 1-2.8-3v-1a3 3 0 0 1 3-3 2.8 2.8 0 0 1 2.8 2.8zm0 9.6V450a2.8 2.8 0 0 1-3 3 3 3 0 0 1-2.8-3v-20.7a2.8 2.8 0 0 1 3-3 2.8 2.8 0 0 1 2.8 3zM570.5 415.7a3 3 0 0 1 3 3V450a3 3 0 0 1-6 0v-31.4a3 3 0 0 1 3-3z"/>
  </g>
  <path class="cls-1" d="M910.2 655.8a44.7 44.7 0 1 0 44.7 44.7 44.7 44.7 0 0 0-44.8-44.7zm16.3 65.2a5.3 5.3 0 0 1 5.3 5.4 5.2 5.2 0 0 1-5.3 5.2h-34a5 5 0 0 1-4-1.7 5.3 5.3 0 0 1 .4-7.6L917 697a12 12 0 0 0 4-9.3 12.4 12.4 0 0 0-3.2-8.3 12 12 0 0 0-9.2-4 12.6 12.6 0 0 0-8.3 3l-3 2.8a5.2 5.2 0 0 1-7.4-.4 5.3 5.3 0 0 1 .5-7.4l3-2.7a22.6 22.6 0 0 1 15.3-6 23 23 0 0 1 17 7.6 22.6 22.6 0 0 1 6 15.4 23 23 0 0 1-7.6 17l-18 16.3z" id="n2"/>
  <g id="txt2">
    <path class="cls-1" d="M611 788.5a3 3 0 0 1-2 3.7 4.7 4.7 0 0 1-1.2 0 4 4 0 0 1-2-.4 5.2 5.2 0 0 1-1.8-2 14.3 14.3 0 0 1-1-6.3 4.5 4.5 0 0 0-.8-2.3 5 5 0 0 0-1.6-1.5 10 10 0 0 0-3-1.3h-6.2V790a3 3 0 0 1-3 3 3 3 0 0 1-3-3v-31.4a3 3 0 0 1 3-3h9.5a11.4 11.4 0 0 1 7 20.2 8.3 8.3 0 0 1 2 2 10 10 0 0 1 1.7 5.7 13.4 13.4 0 0 0 .3 3.2 3 3 0 0 1 2 1.8zm-7.6-21.4a5.5 5.5 0 0 0-5.5-5.4h-6.6v11h6.5a5.5 5.5 0 0 0 5.4-5.5zM616.5 779.6a13.2 13.2 0 0 1 13-13.3 12.7 12.7 0 0 1 12.8 12.4v.2a1.5 1.5 0 0 1 0 .4 2.6 2.6 0 0 1-2.8 2h-17a7 7 0 0 0 2 3.7 8.2 8.2 0 0 0 5 2.4 8.7 8.7 0 0 0 5.5-1.3 3 3 0 0 1 4 0 2.4 2.4 0 0 1 0 3.4 13.4 13.4 0 0 1-9.5 3.5 13.2 13.2 0 0 1-13-13.4zm5.8-2.6h15c-.5-2.2-3.2-5.3-7.8-5.7a7.4 7.4 0 0 0-7.2 5.7zM649 779.7a13.5 13.5 0 0 1 13.4-13.4 14 14 0 0 1 8.5 3 3 3 0 0 1 .4 4 2.8 2.8 0 0 1-4 .4 8.5 8.5 0 0 0-5-1.7 7.6 7.6 0 1 0 0 15.3 8.6 8.6 0 0 0 5-1.7 3 3 0 0 1 4 .6 3 3 0 0 1-.5 4 14.7 14.7 0 0 1-8.6 2.7 13.5 13.5 0 0 1-13.5-13.3zM687 790a3 3 0 0 1-3 3 3 3 0 0 1-2.8-2.3 3 3 0 0 1 0-.7v-31.4a3 3 0 0 1 5.8 0v9.2a12 12 0 0 1 5.7-1.5 11.6 11.6 0 0 1 11.6 11.6v12a3 3 0 1 1-6 0v-12a5.7 5.7 0 1 0-11.3 0zM712 779.6a13.2 13.2 0 0 1 13-13.3 12.7 12.7 0 0 1 12.7 12.4v.2a1.5 1.5 0 0 1 0 .4 2.6 2.6 0 0 1-3 2H718a7 7 0 0 0 1.7 3.7 8.2 8.2 0 0 0 5 2.4 8.7 8.7 0 0 0 5.7-1.3 3 3 0 0 1 4 0 2.4 2.4 0 0 1 0 3.4 13.4 13.4 0 0 1-9.5 3.5 13.2 13.2 0 0 1-13-13.4zm5.7-2.6h15c-.5-2.2-3.2-5.3-8-5.7a7.4 7.4 0 0 0-7 5.7zM761.4 769a2.8 2.8 0 0 1-2.8 3 5 5 0 0 0-3.2 1 8 8 0 0 0-2.5 2.5 16.3 16.3 0 0 0-2.3 4.5v10a3 3 0 0 1-3 3 2.8 2.8 0 0 1-2.7-3v-21a2.8 2.8 0 0 1 2.8-2.7 3 3 0 0 1 3 2.8v.4a7 7 0 0 1 1-1 11.7 11.7 0 0 1 6.8-2 2.8 2.8 0 0 1 2.8 2.7zM765.2 779.7a13.5 13.5 0 0 1 13.5-13.4 14 14 0 0 1 8.4 3 3 3 0 0 1 .7 4 2.8 2.8 0 0 1-4 .4 8.5 8.5 0 0 0-5-1.7 7.6 7.6 0 1 0 0 15.3 8.6 8.6 0 0 0 5-1.7 3 3 0 0 1 4 .6 3 3 0 0 1-.6 4 14.7 14.7 0 0 1-8.3 2.7 13.5 13.5 0 0 1-13.5-13.3zM803.3 790a3 3 0 0 1-3 3 3 3 0 0 1-2.8-2.3 3 3 0 0 1 0-.8v-31.4a3 3 0 0 1 5.8 0v9.2a12 12 0 0 1 5.7-1.5 11.6 11.6 0 0 1 11.6 11.6v12a3 3 0 1 1-6 0v-12a5.7 5.7 0 1 0-11.3 0zM828 779.6a13.2 13.2 0 0 1 13-13.3 12.7 12.7 0 0 1 13 12.4v.2a1.5 1.5 0 0 1 0 .4 2.6 2.6 0 0 1-3 2h-16.8a7 7 0 0 0 1.8 3.7 8.2 8.2 0 0 0 5 2.4 8.7 8.7 0 0 0 5.7-1.3 3 3 0 0 1 4 0 2.4 2.4 0 0 1 0 3.4 13.4 13.4 0 0 1-9.6 3.5 13.2 13.2 0 0 1-13-13.4zm6-2.6h15c-.5-2.2-3.2-5.3-8-5.7a7.4 7.4 0 0 0-7 5.7zM609.7 853.8a3 3 0 0 1-2.8 3 3 3 0 0 1-3-2.4 13 13 0 0 1-7.2 2.3 13.3 13.3 0 0 1 0-26.6 12.6 12.6 0 0 1 7 2.3v-10a3 3 0 0 1 6 0v31.5zm-13-18a7 7 0 0 0-5 2.3 7.7 7.7 0 0 0 0 10.7 7 7 0 0 0 5 2.2 6.8 6.8 0 0 0 5-2.3 7.7 7.7 0 0 0 0-10.6 6.8 6.8 0 0 0-5-2zM618 843.4a13.2 13.2 0 0 1 13-13.3 12.7 12.7 0 0 1 13 12.5v.2a1.5 1.5 0 0 1 0 .5 2.6 2.6 0 0 1-3 2h-17a7 7 0 0 0 2 3.6 8.2 8.2 0 0 0 5 2.4 8.7 8.7 0 0 0 5.6-1.3 3 3 0 0 1 4-.3 2.4 2.4 0 0 1 0 3.5 13.4 13.4 0 0 1-9.5 3.5 13.2 13.2 0 0 1-13-13.3zm6-2.6h15c-.6-2-3.3-5.3-8-5.6a7.4 7.4 0 0 0-7 5.6zM651 849a2.8 2.8 0 0 1 4-.3 9.8 9.8 0 0 0 6 2.3 7 7 0 0 0 3.5-1 2.2 2.2 0 0 0 1-1.6.8.8 0 0 0 0-.5c-.2-.3-.4-.5-.8-.7a12.3 12.3 0 0 0-4.3-1.5 20.4 20.4 0 0 1-4.7-1.4 9 9 0 0 1-3.6-3 6.5 6.5 0 0 1-.8-3.4 7.5 7.5 0 0 1 3-6 11.4 11.4 0 0 1 6.7-2 13.7 13.7 0 0 1 8 3 3 3 0 0 1 .7 4 2.8 2.8 0 0 1-4 .7c-1.6-1-3-2-4.8-2a5.4 5.4 0 0 0-3.3 1 1.6 1.6 0 0 0-1 1.2.6.6 0 0 0 .2.4 1.4 1.4 0 0 0 .5.5 10.8 10.8 0 0 0 4 1.2 19.2 19.2 0 0 1 5 1.6 8.3 8.3 0 0 1 3.7 3 7 7 0 0 1 1 3.6 7.7 7.7 0 0 1-3.3 6.2 12 12 0 0 1-7 2 15.5 15.5 0 0 1-9.5-3.6 2.8 2.8 0 0 1-.4-4zM689.3 863.2a2.8 2.8 0 0 1 3-2.8V833a3 3 0 0 1 2.8-3 2.8 2.8 0 0 1 3 3v27.4a5.8 5.8 0 0 1-5.8 5.7 2.8 2.8 0 0 1-3-2.8zm3-39.7v-1a3 3 0 0 1 3-3 2.8 2.8 0 0 1 2.8 3v1a3 3 0 0 1-2.8 3 3 3 0 0 1-3-3zM710.2 852.8a13.3 13.3 0 0 1-3.7-9.3 13.7 13.7 0 0 1 3.7-9.3 12.4 12.4 0 0 1 9-4 11.8 11.8 0 0 1 9 4 13.3 13.3 0 0 1 3.7 9.3 13 13 0 0 1-3.8 9.3 11.8 11.8 0 0 1-9 4 12.4 12.4 0 0 1-9-4zm2-9.3a8.6 8.6 0 0 0 2 5.6 7.2 7.2 0 0 0 5 2 7 7 0 0 0 5-2 8.2 8.2 0 0 0 2-5.5 8 8 0 0 0-2-5.6 7.5 7.5 0 0 0-5-2 7.7 7.7 0 0 0-5 2 8.4 8.4 0 0 0-2 5.5zM750.6 856.7a11 11 0 0 1-11-11V833a3 3 0 0 1 2.8-3 2.8 2.8 0 0 1 2.8 3v12.7a5.4 5.4 0 0 0 5.5 5.4 5.5 5.5 0 0 0 5.5-5.3V833a2.8 2.8 0 0 1 2.8-3 3 3 0 0 1 3 3v12.7a11.2 11.2 0 0 1-11.4 11zM771 843.4a13.2 13.2 0 0 1 13-13.3 12.7 12.7 0 0 1 12.7 12.5v.2a1.5 1.5 0 0 1 0 .5 2.6 2.6 0 0 1-2.8 2h-17a7 7 0 0 0 1.7 3.6 8.2 8.2 0 0 0 5 2.4 8.7 8.7 0 0 0 5.7-1.3 3 3 0 0 1 4-.3 2.4 2.4 0 0 1 0 3.5 13.4 13.4 0 0 1-9.6 3.5 13.2 13.2 0 0 1-13-13.3zm5.7-2.6h15c-.5-2-3.2-5.3-8-5.6a7.4 7.4 0 0 0-7 5.6zM815.6 856.7a11 11 0 0 1-11-11V833a3 3 0 0 1 2.8-3 2.8 2.8 0 0 1 2.8 3v12.7a5.4 5.4 0 0 0 5.5 5.4 5.5 5.5 0 0 0 5.5-5.3V833a2.8 2.8 0 0 1 2.8-3 3 3 0 0 1 3 3v12.7a11.2 11.2 0 0 1-11.4 11zM854 833a2.8 2.8 0 0 1-2.7 2.8 5 5 0 0 0-3.2 1 8 8 0 0 0-2.4 2.5 16.3 16.3 0 0 0-2 4.5v10a3 3 0 0 1-3 3 2.8 2.8 0 0 1-3-3v-21a2.8 2.8 0 0 1 3-2.7 3 3 0 0 1 3 3v.3a7 7 0 0 1 1-1 11.7 11.7 0 0 1 6.7-2.2 2.8 2.8 0 0 1 2.8 3zM859.8 849a2.8 2.8 0 0 1 4-.3 9.8 9.8 0 0 0 5.8 2.3 7 7 0 0 0 3.7-1 2.2 2.2 0 0 0 1-1.6.8.8 0 0 0-.2-.5c0-.3-.2-.5-.6-.7a12.3 12.3 0 0 0-4.2-1.5h-.2a20.4 20.4 0 0 1-4.6-1.4 9 9 0 0 1-3.7-3 6.5 6.5 0 0 1-1-3.4 7.5 7.5 0 0 1 3.3-6 11.4 11.4 0 0 1 6.5-2 13.7 13.7 0 0 1 8 3 3 3 0 0 1 .8 4 2.8 2.8 0 0 1-4 .7c-1.6-1-3-2-4.8-2a5.4 5.4 0 0 0-3.2 1 1.6 1.6 0 0 0-.8 1.2.6.6 0 0 0 0 .4 1.4 1.4 0 0 0 .7.5 10.8 10.8 0 0 0 3.8 1.2 19.2 19.2 0 0 1 5 1.6 8.3 8.3 0 0 1 4 3 7 7 0 0 1 1 3.6 7.7 7.7 0 0 1-3.5 6.2 12 12 0 0 1-7 2 15.5 15.5 0 0 1-9.4-3.6 2.8 2.8 0 0 1-.2-4z"/>
  </g>
  <g id="ico2">
    <g id="ico2-2" data-name="ico2">
      <path class="cls-1" d="M892.8 842a12 12 0 0 0 20.7 8.5l22-22a40.6 40.6 0 1 0-17.6-16.7l-21.6 21.6a12 12 0 0 0-3.6 8.5zm60.5-13.6a36.3 36.3 0 1 1 36.3-36.3 36.3 36.3 0 0 1-36.3 36.4zM897 842a7.8 7.8 0 0 1 2.4-5.6l20.8-21a41 41 0 0 0 11.4 11l-21.2 21A7.8 7.8 0 0 1 897 842z"/>
      <path class="cls-1" d="M938.7 777.5a20.6 20.6 0 0 1 26.6-2.2 2 2 0 1 1-2.5 3.5 16.4 16.4 0 0 0-21 1.8 16.4 16.4 0 0 0-3.2 4.4 2 2 0 1 1-4-2 20.7 20.7 0 0 1 4-5.5z"/>
      <path class="cls-1" d="M921.6 792a31.7 31.7 0 1 0 31.7-31.6 31.8 31.8 0 0 0-31.7 31.7zm4.3 0a27.4 27.4 0 1 1 27.3 27.6A27.5 27.5 0 0 1 926 792z"/>
    </g>
    <path class="cls-1" d="M1095 822.2a12.3 12.3 0 0 0 10-20c-4.3-9.5-16.3-32.4-39-43.8a21.6 21.6 0 0 0 10.2-18.3v-10.3a21.6 21.6 0 1 0-43.2 0V740a21.6 21.6 0 0 0 8.8 17.5c-20 9.2-32.2 27.5-38.2 39a12.4 12.4 0 1 0 18.2 6.4 85.6 85.6 0 0 1 7.7-11.6V847.3h-2.7a7.4 7.4 0 0 0 0 14.8h18.2a3.6 3.6 0 0 0 3.6-3.5v-38.2h3.5l15 34.8a7.4 7.4 0 0 0 7.5 7.2h14.3a7.4 7.4 0 0 0 0-14.8h-4.3l-15-34.7V784a79.8 79.8 0 0 1 14.8 19.7 12.3 12.3 0 0 0 10.8 18.5zm-29-45.7v37l16.2 37.5h6.7a3.8 3.8 0 0 1 0 7.6h-14.4a3.8 3.8 0 0 1-3.8-3.8v-.4l-16.3-37.7h-9.5v42h-18a3.8 3.8 0 1 1 0-7.7h6.2v-69a83.4 83.4 0 0 0-15.4 20.7 8.8 8.8 0 1 1-11.5-3.6c6-11.5 18.7-31.4 40.7-39.7v-3a18 18 0 0 1-10.4-16.2v-10.3a18 18 0 1 1 36 0V740a18 18 0 0 1-10.8 16.6v4c23.8 10.4 36 34.3 40 43.6a8.8 8.8 0 1 1-13-.2c-4-7.7-11.5-19.4-23-27.5z"/>
    <path class="cls-1" d="M1172.6 847.4h-4.3l-15-34.7V775h2.8a32.8 32.8 0 0 0 29.5-47.4 12.4 12.4 0 0 0-3.7-6 3.6 3.6 0 0 0-1.4-1A12.4 12.4 0 1 0 1170 743 13.8 13.8 0 0 1 1156 756h-3.2a21.6 21.6 0 0 0 7-16v-10.3a21.6 21.6 0 1 0-43.2 0V740a21.6 21.6 0 0 0 7 16h-7.4a13.8 13.8 0 0 1-13.7-13.2 12.4 12.4 0 1 0-10.7-22 3.6 3.6 0 0 0-1.4 1 12.4 12.4 0 0 0-3.7 5.7 32.8 32.8 0 0 0 26.3 47.3v72.5h-2.7a7.4 7.4 0 0 0 0 15h18a3.6 3.6 0 0 0 3.7-3.8v-38.2h3.5l15 34.8a7.4 7.4 0 0 0 7.4 7.2h14.3a7.4 7.4 0 1 0 0-14.8zm0 11.2h-14.3a3.8 3.8 0 0 1-3.8-3.8 3.7 3.7 0 0 1 0-.4l-16.3-37.7h-9.5v42h-18a3.8 3.8 0 1 1 0-7.7h6.2v-79.6h-.7a29.2 29.2 0 0 1-26-42.5 8.7 8.7 0 0 1 3-4.8l.2-.2a8.7 8.7 0 1 1 5.6 15.8 17.7 17.7 0 0 0 0 2.4 17.4 17.4 0 0 0 17.3 17.4h14.4v-3.3a18 18 0 0 1-10.4-16.2v-10.3a18 18 0 1 1 36 0V740a18 18 0 0 1-10.8 16.6v3h10.6a17.4 17.4 0 0 0 17.5-17.4 17.7 17.7 0 0 0-.2-2.4 8.7 8.7 0 1 1 5.6-15.8v.2a8.7 8.7 0 0 1 3 4.7 29.2 29.2 0 0 1-26 42.4h-6.3v42L1166 851h6.6a3.8 3.8 0 1 1 0 7.6z"/>
    <path class="cls-1" d="M1253.8 753.4h-6.5a22.3 22.3 0 0 0 8.3-17.4v-10.7a22.3 22.3 0 1 0-44.7 0V736a22.3 22.3 0 0 0 8.2 17.4h-6.5a33.8 33.8 0 0 0-30.4 48.8 12.8 12.8 0 0 0 4 6.2 3.7 3.7 0 0 0 1.3 1 12.8 12.8 0 1 0 11-22.8 14.2 14.2 0 0 1 14-13.6v73.8h-2.8a7.7 7.7 0 0 0 0 15.4h18.7a3.7 3.7 0 0 0 3.7-3.8v-36.6h2v36.7a3.7 3.7 0 0 0 3.7 3.7h18.7a7.7 7.7 0 0 0 0-15.3h-2.8v-74a14.2 14.2 0 0 1 14 13.7 12.8 12.8 0 1 0 11 22.8 3.7 3.7 0 0 0 1.3-1 12.8 12.8 0 0 0 4-6.2 33.8 33.8 0 0 0-30.5-49zm27 47.5a9 9 0 0 1-3.3 5h-.2a9 9 0 1 1-5.8-16.2 18.3 18.3 0 0 0 .2-2.5 18 18 0 0 0-18-18h-3.5v81.4h6.5a4 4 0 0 1 0 7.8H1238V818h-9.4v40.5H1210a4 4 0 1 1-.2-7.8h6.6v-81.4h-3.7a18 18 0 0 0-18 18 18.3 18.3 0 0 0 .3 2.5 9 9 0 1 1-5.8 16.2h-.2a9 9 0 0 1-3-5 30 30 0 0 1 26.7-44h13v-4a18.6 18.6 0 0 1-11-17v-10.7a18.6 18.6 0 0 1 37.2 0V736a18.6 18.6 0 0 1-11 17v4h12.8a30 30 0 0 1 27 44z"/>
  </g>
  <path class="cls-1" d="M1543.3 444v14.5a7.5 7.5 0 1 0 15 0v-3h14.5a12 12 0 0 0 10.7-6.8l5.7-11.4 2.7 1.2 16 8v17a7.6 7.6 0 0 0 7.6 7.6h14.7a7.5 7.5 0 0 0 0-15h-2.8l-.2-14.4a12 12 0 0 0-6.8-10.8l-4.6-2.3 5.3-16.7a33.5 33.5 0 0 0 11 2l2.5-.2a33 33 0 0 0 29.6-24.3 12.6 12.6 0 0 0 1-7 3.7 3.7 0 0 0-.2-1.7 12.6 12.6 0 0 0-20.6-6 22 22 0 0 0 2.3-10V354a22 22 0 0 0-44 0v10.7a21.6 21.6 0 0 0 .5 5l-1.7 2-20.8 1c-10 .7-19 5-25 12a33 33 0 0 0-3.8 38 12.6 12.6 0 0 0 4.2 6 3.7 3.7 0 0 0 1.4 1 12.5 12.5 0 0 0 6.3 1.6h.8a12.5 12.5 0 0 0 7-2.6l-3.8 7.5h-17.2a3.7 3.7 0 0 0-.7.2 7.6 7.6 0 0 0-6.7 7.5zm3.7 0a4 4 0 0 1 3.8-4l19.5-.2 6-12 13.5-39.7-8.6.6c-9.8.6-18 8.6-17.7 18.3a18 18 0 0 0 .4 2.8 9 9 0 1 1-4.8 16.4l-.3-.2a9 9 0 0 1-3.5-4.7 29.3 29.3 0 0 1 3.2-34c5.6-6.7 14-10.3 22.5-10.8l21-1.2a6 6 0 0 1 1.3 0l4-4.7a18.3 18.3 0 0 1-1-6v-10.5a18.3 18.3 0 0 1 36.7 0v10.7a18.3 18.3 0 0 1-25.4 17l-.6.8a17 17 0 0 1 5 12.5c7.2 4.5 17 4 22.8-2.4a18 18 0 0 0 1.8-2.3 9 9 0 1 1 15-8.2v.4a9 9 0 0 1-1 5.7 29.3 29.3 0 0 1-26.3 22 30 30 0 0 1-15.5-3l-7.7 23.5 7.5 3.7a8.5 8.5 0 0 1 4.8 7.6v18h6.6a4 4 0 1 1 0 7.7h-14.6a4 4 0 0 1-4-4v-19.3l-18.2-9-6-2.6-7.3 14.5a8.4 8.4 0 0 1-7.3 4.8l-18 .3v6.6a4 4 0 1 1-7.8 0zm93.4-59.5a12.6 12.6 0 0 0 1.7 5.7 13.4 13.4 0 0 1-9.6 4 15.5 15.5 0 0 1-6.6-1.5 20.6 20.6 0 0 0-1.4-6h.5a22 22 0 0 0 16.2-7.3 12.6 12.6 0 0 0-.8 5zm-73 22c-.2-7.4 6-13.8 14-14.2l3.2-.2-8.2 24a12.6 12.6 0 0 0-9.2-9.5z" id="ico3"/>
  <path class="cls-1" d="M1189.2 380.8a44.7 44.7 0 1 0 44.6 44.7 44.7 44.7 0 0 0-44.6-44.7zm13.6 37.8a22.7 22.7 0 0 1 6.8 16.2 23 23 0 0 1-39.3 16.4 5.3 5.3 0 0 1 7.4-7.5 12.3 12.3 0 0 0 8.8 3.7 12.7 12.7 0 0 0 9-3.7 12.4 12.4 0 0 0 3.6-9 12 12 0 0 0-3.6-8.7 12.4 12.4 0 0 0-8.8-3.7 4.6 4.6 0 0 1-3.8-1.7 5.3 5.3 0 0 1-.3-7.5l9.5-9.5h-15a5.2 5.2 0 0 1 0-10.5h27.4a5.2 5.2 0 0 1 5.3 5.2 5.6 5.6 0 0 1-.7 2.5 6.5 6.5 0 0 1-1 1.3l-11.6 12a21 21 0 0 1 6.4 4.6z" id="n3"/>
  <g id="txt3">
    <path class="cls-1" d="M1256 435.8v-31.4a3 3 0 0 1 2.8-3 3 3 0 0 1 3 3v28.4h14.5a3 3 0 0 1 0 6H1259a3 3 0 0 1-3-3zM1283 425.4a13.2 13.2 0 0 1 13-13.3 12.7 12.7 0 0 1 12.7 12.4v.3a1.5 1.5 0 0 1 0 .4 2.6 2.6 0 0 1-2.8 2.3h-17a7 7 0 0 0 1.8 3.5 8.2 8.2 0 0 0 5 2.4 8.7 8.7 0 0 0 5.6-1.4 3 3 0 0 1 4 0 2.4 2.4 0 0 1 0 3.3 13.4 13.4 0 0 1-9.5 3.7 13.2 13.2 0 0 1-13-13.3zm5.7-2.6h15c-.5-2-3.2-5.3-7.8-5.6a7.4 7.4 0 0 0-7.3 5.6zM1327 415a3 3 0 0 1-3 3h-1.3v14.8a3 3 0 0 1 3 3 3 3 0 0 1-3 3 6 6 0 0 1-6-6V418h-1.5a3 3 0 0 1-3-3 3 3 0 0 1 3-3h1.6v-7.6a3 3 0 0 1 3-3 3 3 0 0 1 3 3v7.7h1.2a3 3 0 0 1 3 3zM1336.2 413.5c2.5-.7 3.7-2.3 3.6-4.7a3.8 3.8 0 0 1-3-3.6v-.4a3.5 3.5 0 0 1 3.7-3.6c2.3 0 3.8 1.8 3.8 4.7v.4c0 3.6-1 6-2.6 7.8a7.8 7.8 0 0 1-5 2.3 1.4 1.4 0 0 1-1.7-1.5 1.5 1.5 0 0 1 1.2-1.5zM1346.2 431a2.8 2.8 0 0 1 4-.3 9.8 9.8 0 0 0 5.8 2.3 7 7 0 0 0 3.6-1 2.2 2.2 0 0 0 1-1.6.8.8 0 0 0 0-.5l-.8-.8a12.3 12.3 0 0 0-4.3-1.5 20.4 20.4 0 0 1-4.6-1.3 9 9 0 0 1-3.8-3 6.5 6.5 0 0 1-1-3.5 7.5 7.5 0 0 1 3.2-6 11.4 11.4 0 0 1 6.6-2 13.7 13.7 0 0 1 8 3 3 3 0 0 1 .8 4 2.8 2.8 0 0 1-4 .7c-1.6-1-3-2-4.8-2a5.4 5.4 0 0 0-3.2 1 1.6 1.6 0 0 0-1 1.2.6.6 0 0 0 .3.3 1.4 1.4 0 0 0 .6.6 10.8 10.8 0 0 0 4 1.2 19.2 19.2 0 0 1 5 1.5 8.3 8.3 0 0 1 3.7 3.2 7 7 0 0 1 1 3.4 7.7 7.7 0 0 1-3.3 6.2 12 12 0 0 1-7 2 15.5 15.5 0 0 1-9.5-3.6 2.8 2.8 0 0 1-.3-4zM1389.6 445.8v-31a2.8 2.8 0 0 1 2.8-2.7 3 3 0 0 1 3 2.3 13.5 13.5 0 0 1 7.2-2.2c7 0 12.8 6.2 12.8 13.5a13 13 0 0 1-12.8 13.2 12.3 12.3 0 0 1-7.2-2.2v9.4a3 3 0 0 1-3 2.7 3 3 0 0 1-2.8-3zm5.8-20.4a7 7 0 0 0 2 5.4 6.6 6.6 0 0 0 5 2.2 6.8 6.8 0 0 0 5-2.2 7.8 7.8 0 0 0 2.2-5.4 8.2 8.2 0 0 0-2-5.3 7 7 0 0 0-5-2 6.7 6.7 0 0 0-5 2 7.5 7.5 0 0 0-2.2 5.4zM1427 401.5a3 3 0 0 1 3 3v31.3a3 3 0 0 1-6 0v-31.4a3 3 0 0 1 3-3zM1459.4 425.4V436a2.8 2.8 0 0 1-3 2.7 3 3 0 0 1-2.6-2.3 12 12 0 0 1-7 2.3 12.4 12.4 0 0 1-9-4 13.6 13.6 0 0 1-3.7-9.2 13.4 13.4 0 0 1 3.7-9.4 12.3 12.3 0 0 1 9-4 12 12 0 0 1 7 2.4 3 3 0 0 1 2.8-2.3 3 3 0 0 1 3 3zm-5.7 0a7.8 7.8 0 0 0-2-5.4 6.6 6.6 0 0 0-5-2.2 6.4 6.4 0 0 0-5 2.2 7.8 7.8 0 0 0-2 5.4 8 8 0 0 0 2 5.5 6.7 6.7 0 0 0 5 2 7 7 0 0 0 5-2 8 8 0 0 0 2-5.6zM1491.5 415v20a12.6 12.6 0 0 1-18.2 11.4 2.8 2.8 0 0 1-1.4-3.8 3 3 0 0 1 3.7-1 7 7 0 0 0 3 .6 7 7 0 0 0 6.7-4.8 10.3 10.3 0 0 1-5 1.2 11.2 11.2 0 0 1-11-11v-12.7a2.8 2.8 0 0 1 2.6-3 2.7 2.7 0 0 1 3 3v12.5a5.5 5.5 0 0 0 11 0V415a2.7 2.7 0 0 1 2.6-3 3 3 0 0 1 3 3zM1518.7 426v-21.6a3 3 0 0 1 3-3 3 3 0 0 1 2.8 3V426a3 3 0 0 1-3 2.8 3 3 0 0 1-2.8-3zm3 12.7a3 3 0 0 1-3-3v-1a3 3 0 0 1 3-3 3 3 0 0 1 2.8 3v1a3 3 0 0 1-3 3z"/>
  </g>
  <path class="cls-1" d="M912.8 245.7a7.2 7.2 0 0 1-7.3-7v-22.8a7.2 7.2 0 0 1 14.4 0v22.6a7.2 7.2 0 0 1-7.2 7z" id="barre0"/>
  <path class="cls-1" d="M912 646.8a7.2 7.2 0 0 1-7.2-7V617a7.2 7.2 0 0 1 14.3 0v22.7a7.2 7.2 0 0 1-7 7z" id="barre2"/>
  <path class="cls-1" d="M730.2 427.3a7.2 7.2 0 0 1-7 7.2h-22.8a7.2 7.2 0 0 1 0-14.3H723a7.2 7.2 0 0 1 7.2 7z" id="barre1"/>
  <path class="cls-1" d="M1131.3 428a7.2 7.2 0 0 1-7 7.4h-22.8a7.2 7.2 0 0 1 0-14.4h22.7a7.2 7.2 0 0 1 7 7z" id="barre3"/>
  <g id="logofyt">
    <path class="cls-1" d="M836.3 466.3h-37.6a4.8 4.8 0 0 0-5 4.8 5 5 0 0 0 5 5h14v47a4.8 4.8 0 0 0 4.7 5 4.8 4.8 0 0 0 5-5v-47h14a5 5 0 0 0 4.7-5 4.8 4.8 0 0 0-4.7-4.7zM893.6 476a5 5 0 0 0 0-9.7H865a4.8 4.8 0 0 0-5 4.8v52a4.8 4.8 0 0 0 4.5 4.8 1.6 1.6 0 0 0 .4 0 1.6 1.6 0 0 0 .2 0h28.4a5 5 0 0 0 0-9.7h-23.8v-16h20.5a5 5 0 0 0 0-10h-20.5v-16zM942 469.4a4.8 4.8 0 0 0-4.6-3 5 5 0 0 0-4.8 3.2L913 521.4a5 5 0 0 0 3 6.3 5 5 0 0 0 1.7.2 5 5 0 0 0 4.6-3.2l4.3-11.4H948l4.3 11.5a5 5 0 0 0 6 2.7 5 5 0 0 0 3-6.4zm2.4 34.3H930l7.3-19zM1025.8 466.3a5 5 0 0 0-4 2l-17.5 24.2-17.5-24.2a4.8 4.8 0 0 0-4-2h-.2a5 5 0 0 0-4.8 4.8v52a5 5 0 0 0 9.8 0v-37l12.6 17.6a5 5 0 0 0 4 2 4.8 4.8 0 0 0 4-2L1021 486v37a4.8 4.8 0 0 0 4.8 4.8 5 5 0 0 0 5-4.8v-52a5 5 0 0 0-5-4.7zM814 429v22.3a4.6 4.6 0 0 0 4.6 4.6 4.5 4.5 0 0 0 4.6-4.7V429l17-23.5a4.6 4.6 0 0 0-1-6.3 4.6 4.6 0 0 0-6.5 1l-14 19.5-14.3-19.4a4.3 4.3 0 0 0-2.8-2 4.6 4.6 0 0 0-3.5 1 4.4 4.4 0 0 0-1.8 3 4.3 4.3 0 0 0 1 3.2zM895 406a27 27 0 0 0-20-8.8 27.8 27.8 0 0 0-20.3 9 30.6 30.6 0 0 0-8.3 21 30.2 30.2 0 0 0 8.2 21A28 28 0 0 0 875 457a27.3 27.3 0 0 0 19.8-8.8 30.5 30.5 0 0 0 0-42zm-6.8 35.6a18 18 0 0 1-13.2 6 18.3 18.3 0 0 1-13.4-6A20.7 20.7 0 0 1 856 427a21.2 21.2 0 0 1 5.6-14.4 18 18 0 0 1 26.6 0 21.5 21.5 0 0 1 5.6 14.5 21 21 0 0 1-5.6 14.6zM963.6 398a4.6 4.6 0 0 0-4.7 4.6v29.6a14.8 14.8 0 0 1-29.6 0v-29.6a4.6 4.6 0 0 0-4.7-4.6 4.5 4.5 0 0 0-4.6 4.6v29.6a24 24 0 0 0 48 0v-29.6a4.5 4.5 0 0 0-4.4-4.5zM1025.8 416a17.8 17.8 0 0 0-17.8-18h-14.8a4.5 4.5 0 0 0-4.6 4.6v49a4.6 4.6 0 0 0 9.2 0v-18h9.8a15.8 15.8 0 0 1 4.7 2 7.7 7.7 0 0 1 2.5 2.5 7 7 0 0 1 1 3.5c0 4.5.5 7.6 1.7 10.2a8 8 0 0 0 2.6 2.7 6.2 6.2 0 0 0 3.4 1 7.4 7.4 0 0 0 2-.3 4.6 4.6 0 0 0 2.8-5.7 4.5 4.5 0 0 0-3-2.8 21.6 21.6 0 0 1-.3-5 15.6 15.6 0 0 0-2.8-9 13 13 0 0 0-3-3 17.5 17.5 0 0 0 6.6-13.6zm-9.2 0a8.5 8.5 0 0 1-8.6 8.4h-10.2v-17h10.2a8.6 8.6 0 0 1 8.5 8.5zM877 388a4.6 4.6 0 0 0 4.6-4.6v-49a4.6 4.6 0 0 0-4.7-4.6 4.5 4.5 0 0 0-4.7 4.6v49a4.5 4.5 0 0 0 4.6 4.6zM922 335v48a4.5 4.5 0 1 0 9.2 0v-34.3l26.6 36.8a1.7 1.7 0 0 0 .4.6 4.5 4.5 0 0 0 3.4 1.7 4.6 4.6 0 0 0 4.6-4.6v-48a4.5 4.5 0 0 0-9 0v34l-27-37a4.6 4.6 0 0 0-6.3-1 4.5 4.5 0 0 0-2 3.7zM992 385.8h9.8a29 29 0 0 0 0-58H992a4.5 4.5 0 0 0-4.6 4.5v49a4.6 4.6 0 0 0 4.6 4.5zm4.7-9.2V337h5a20 20 0 0 1 0 39.6zM806.7 388a4.6 4.6 0 0 0 4.7-4.6v-20h19.3a4.6 4.6 0 0 0 4.6-4.6 4.7 4.7 0 0 0-4.6-4.6h-19.3V339H834a4.6 4.6 0 0 0 0-9.2h-27.2a4.6 4.6 0 0 0-4.6 4.6v49a4.6 4.6 0 0 0 4.5 4.6z"/>
  </g>
  <path class="cls-1" d="M1072.5 427.8l-19.7-20a5.3 5.3 0 0 1 0-7.3 5.4 5.4 0 0 1 7.5 0l23.3 23.6a5.7 5.7 0 0 1 1.6 3.8 5.5 5.5 0 0 1-1.6 3.6l-23.3 23.7a5.5 5.5 0 0 1-3.8 1.6 5.2 5.2 0 0 1-3.7-9z" id="arrow3"/>
  <path class="cls-1" d="M932.2 568.3a5.2 5.2 0 0 1 9 3.6 5.5 5.5 0 0 1-1.5 3.7L916 599a5.5 5.5 0 0 1-3.7 1.7 5.7 5.7 0 0 1-3.6-1.6L885 575.8a5.4 5.4 0 0 1 0-7.4 5.3 5.3 0 0 1 7.5 0l19.8 19.7z" id="arrow2"/>
  <path class="cls-1" d="M771.8 447.7a5.2 5.2 0 0 1-3.6 9 5.5 5.5 0 0 1-4-1.5L741 431.5a5.5 5.5 0 0 1-1.6-3.6 5.7 5.7 0 0 1 1.6-3.8l23.3-23.7a5.4 5.4 0 0 1 7.5 0 5.3 5.3 0 0 1 0 7.5L752 427.8z" id="arrow1"/>
  <path class="cls-1" d="M912.3 267.6l-19.8 19.7a5.3 5.3 0 0 1-7.5 0 5.4 5.4 0 0 1 0-7.5l23.7-23.3a5.7 5.7 0 0 1 3.6-1.6 5.5 5.5 0 0 1 3.7 1.5l23.7 23.3a5.5 5.5 0 0 1 1.5 3.8 5.2 5.2 0 0 1-9 3.7z" id="arrow0"/>
</svg>
